<?xml version="1.0" encoding="UTF-8"?> <svg xmlns="http://www.w3.org/2000/svg" width="754" height="582" viewBox="0 0 754 582" fill="none"><path d="M3.36606 52V50.119C4.81006 50.043 5.79806 49.72 6.33006 49.15C6.86206 48.542 7.14706 47.725 7.18506 46.699C7.26106 45.635 7.29906 44.438 7.29906 43.108V18.484C7.29906 17.724 7.31806 17.002 7.35606 16.318C7.39406 15.596 7.43206 14.95 7.47006 14.38C6.78606 14.418 6.10206 14.456 5.41806 14.494C4.73406 14.532 4.05006 14.57 3.36606 14.608V12.1H40.4731V13.981C39.0671 14.019 38.0791 14.342 37.5091 14.95C36.9771 15.558 36.6731 16.375 36.5971 17.401C36.5591 18.427 36.5401 19.624 36.5401 20.992V45.217C36.5401 46.243 36.5211 47.136 36.4831 47.896C36.4831 48.618 36.4451 49.226 36.3691 49.72C37.0531 49.682 37.7371 49.644 38.4211 49.606C39.1051 49.568 39.7891 49.53 40.4731 49.492V52H27.5911V50.119C29.0351 50.043 30.0231 49.72 30.5551 49.15C31.1251 48.542 31.4291 47.725 31.4671 46.699C31.5431 45.635 31.5811 44.438 31.5811 43.108V14.323L16.1911 14.551C15.0511 14.589 14.1961 14.817 13.6261 15.235C13.0941 15.615 12.7331 16.147 12.5431 16.831C12.3911 17.515 12.2961 18.313 12.2581 19.225V45.217C12.2581 46.243 12.2391 47.136 12.2011 47.896C12.2011 48.618 12.1631 49.226 12.0871 49.72C12.7711 49.682 13.4551 49.644 14.1391 49.606C14.8231 49.568 15.5071 49.53 16.1911 49.492V52H3.36606ZM52.4284 52V50.119C53.8724 50.043 54.8604 49.72 55.3924 49.15C55.9244 48.542 56.2094 47.725 56.2474 46.699C56.3234 45.635 56.3614 44.438 56.3614 43.108V18.484C56.3614 17.724 56.3804 17.002 56.4184 16.318C56.4564 15.596 56.4944 14.95 56.5324 14.38C55.8484 14.418 55.1644 14.456 54.4804 14.494C53.7964 14.532 53.1124 14.57 52.4284 14.608V12.1H65.2534V13.981C63.8474 14.019 62.8594 14.342 62.2894 14.95C61.7574 15.558 61.4534 16.375 61.3774 17.401C61.3394 18.427 61.3204 19.624 61.3204 20.992V30.454H81.7264V18.484C81.7264 17.724 81.7454 17.002 81.7834 16.318C81.8214 15.596 81.8594 14.95 81.8974 14.38C81.2134 14.418 80.5294 14.456 79.8454 14.494C79.1614 14.532 78.4774 14.57 77.7934 14.608V12.1H90.6184V13.981C89.2124 14.019 88.2244 14.342 87.6544 14.95C87.1224 15.558 86.8184 16.375 86.7424 17.401C86.7044 18.427 86.6854 19.624 86.6854 20.992V45.217C86.6854 46.243 86.6664 47.136 86.6284 47.896C86.6284 48.618 86.5904 49.226 86.5144 49.72C87.1984 49.682 87.8824 49.644 88.5664 49.606C89.2504 49.568 89.9344 49.53 90.6184 49.492V52H77.7934V50.119C79.2374 50.043 80.2254 49.72 80.7574 49.15C81.2894 48.542 81.5744 47.725 81.6124 46.699C81.6884 45.635 81.7264 44.438 81.7264 43.108V32.734L61.3204 32.962V45.217C61.3204 46.243 61.3014 47.136 61.2634 47.896C61.2634 48.618 61.2254 49.226 61.1494 49.72C61.8334 49.682 62.5174 49.644 63.2014 49.606C63.8854 49.568 64.5694 49.53 65.2534 49.492V52H52.4284Z" fill="#1F3622"></path><path d="M125.326 52V50.119C126.77 50.081 127.758 49.758 128.29 49.15C128.822 48.504 129.107 47.649 129.145 46.585C129.221 45.483 129.259 44.229 129.259 42.823V18.883C129.259 17.857 129.278 16.983 129.316 16.261C129.354 15.501 129.392 14.874 129.43 14.38C128.746 14.418 128.062 14.456 127.378 14.494C126.694 14.532 126.01 14.57 125.326 14.608V12.1C127.416 12.062 129.506 12.043 131.596 12.043C133.724 12.005 135.928 11.986 138.208 11.986C142.616 11.986 146.055 12.765 148.525 14.323C151.033 15.881 152.249 18.351 152.173 21.733C152.173 22.949 151.812 24.165 151.09 25.381C150.406 26.597 149.361 27.68 147.955 28.63C146.587 29.542 144.858 30.188 142.768 30.568V30.682C146.948 30.682 150.102 31.651 152.23 33.589C154.358 35.489 155.422 37.902 155.422 40.828C155.422 43.146 154.833 45.141 153.655 46.813C152.477 48.485 150.881 49.777 148.867 50.689C146.853 51.563 144.554 52 141.97 52H125.326ZM134.047 49.72C134.655 49.758 135.377 49.796 136.213 49.834C137.087 49.834 137.885 49.834 138.607 49.834C139.367 49.834 139.861 49.834 140.089 49.834C143.015 49.834 145.371 49.112 147.157 47.668C148.981 46.186 149.893 44.02 149.893 41.17C149.893 38.852 149.437 37.047 148.525 35.755C147.613 34.463 146.416 33.551 144.934 33.019C143.452 32.487 141.837 32.221 140.089 32.221C138.949 32.221 137.904 32.24 136.954 32.278C136.042 32.278 135.13 32.316 134.218 32.392V45.274C134.218 46.3 134.199 47.174 134.161 47.896C134.161 48.618 134.123 49.226 134.047 49.72ZM134.218 30.169L138.379 30.055C140.545 30.017 142.255 29.58 143.509 28.744C144.763 27.87 145.656 26.787 146.188 25.495C146.758 24.203 147.024 22.854 146.986 21.448C146.948 19.396 146.473 17.838 145.561 16.774C144.687 15.71 143.604 14.988 142.312 14.608C141.02 14.228 139.747 14.038 138.493 14.038C137.239 14.038 136.308 14.209 135.7 14.551C135.092 14.893 134.693 15.463 134.503 16.261C134.313 17.059 134.218 18.161 134.218 19.567V30.169ZM196.352 24.127C196.314 21.885 196.086 20.023 195.668 18.541C195.25 17.059 194.509 15.957 193.445 15.235C192.419 14.475 190.918 14.114 188.942 14.152H184.097L184.04 45.217C184.04 46.243 184.021 47.136 183.983 47.896C183.983 48.618 183.945 49.226 183.869 49.72C184.667 49.682 185.446 49.644 186.206 49.606C187.004 49.568 187.802 49.53 188.6 49.492V52H175.205V50.119C176.649 50.043 177.618 49.701 178.112 49.093C178.644 48.485 178.929 47.668 178.967 46.642C179.043 45.578 179.081 44.4 179.081 43.108L179.138 14.209L173.267 14.266C170.873 14.266 169.182 15.064 168.194 16.66C167.206 18.256 166.712 20.745 166.712 24.127H164.603L164.945 12.1H198.176L198.518 24.127H196.352Z" fill="#1F3622"></path><path d="M263.095 24.811C262.715 21.239 261.461 18.465 259.333 16.489C257.243 14.513 254.545 13.525 251.239 13.525C249.225 13.525 247.325 13.962 245.539 14.836C243.791 15.672 242.252 16.888 240.922 18.484C239.592 20.08 238.547 21.999 237.787 24.241C237.027 26.483 236.647 29.01 236.647 31.822C236.647 35.394 237.331 38.548 238.699 41.284C240.067 44.02 241.91 46.148 244.228 47.668C246.546 49.188 249.111 49.948 251.923 49.948C254.393 49.948 256.825 49.397 259.219 48.295C261.613 47.155 263.57 45.521 265.09 43.393L266.572 44.59C264.938 46.832 263.171 48.561 261.271 49.777C259.371 50.993 257.471 51.81 255.571 52.228C253.709 52.684 251.999 52.912 250.441 52.912C247.591 52.912 244.969 52.399 242.575 51.373C240.219 50.347 238.167 48.922 236.419 47.098C234.709 45.236 233.379 43.089 232.429 40.657C231.517 38.187 231.061 35.527 231.061 32.677C231.061 29.979 231.46 27.357 232.258 24.811C233.094 22.265 234.329 19.966 235.963 17.914C237.597 15.862 239.649 14.228 242.119 13.012C244.627 11.796 247.534 11.188 250.84 11.188C252.968 11.188 254.982 11.473 256.882 12.043C258.782 12.613 260.606 13.487 262.354 14.665L262.069 11.587H265.147V24.811H263.095ZM277.129 50.119C278.573 50.043 279.561 49.72 280.093 49.15C280.625 48.542 280.91 47.725 280.948 46.699C281.024 45.635 281.062 44.438 281.062 43.108V18.484C281.062 17.724 281.081 17.002 281.119 16.318C281.157 15.596 281.195 14.95 281.233 14.38C280.549 14.418 279.865 14.456 279.181 14.494C278.497 14.532 277.813 14.57 277.129 14.608V12.1C279.143 12.062 281.214 12.043 283.342 12.043C285.47 12.005 287.636 11.986 289.84 11.986C293.526 11.986 296.623 12.404 299.131 13.24C301.639 14.076 303.558 15.311 304.888 16.945C306.218 18.579 306.94 20.612 307.054 23.044C307.13 24.526 306.902 26.084 306.37 27.718C305.876 29.314 304.926 30.834 303.52 32.278C302.152 33.684 300.214 34.824 297.706 35.698C295.198 36.572 291.987 37.009 288.073 37.009C287.921 37.009 287.636 37.009 287.218 37.009C286.8 37.009 286.401 36.99 286.021 36.952V45.217C286.021 46.243 286.002 47.136 285.964 47.896C285.964 48.618 285.926 49.226 285.85 49.72C286.458 49.682 287.047 49.644 287.617 49.606C288.187 49.568 288.757 49.549 289.327 49.549C289.935 49.511 290.524 49.473 291.094 49.435V52H277.129V50.119ZM286.021 34.615C286.743 34.691 287.351 34.748 287.845 34.786C288.377 34.786 289.004 34.786 289.726 34.786C291.892 34.786 293.868 34.368 295.654 33.532C297.44 32.658 298.865 31.423 299.929 29.827C300.993 28.231 301.525 26.331 301.525 24.127C301.525 22.341 301.24 20.821 300.67 19.567C300.1 18.275 299.283 17.249 298.219 16.489C297.193 15.691 295.958 15.121 294.514 14.779C293.07 14.399 291.474 14.209 289.726 14.209C288.396 14.209 287.465 14.494 286.933 15.064C286.439 15.634 286.154 16.432 286.078 17.458C286.04 18.446 286.021 19.624 286.021 20.992V34.615Z" fill="#1F3622"></path><path d="M361.463 52V50.119C362.907 50.043 363.895 49.72 364.427 49.15C364.959 48.542 365.244 47.725 365.282 46.699C365.358 45.635 365.396 44.438 365.396 43.108V34.273C364.066 34.919 362.489 35.451 360.665 35.869C358.879 36.249 356.979 36.439 354.965 36.439C350.823 36.439 347.821 35.451 345.959 33.475C344.097 31.499 343.166 28.687 343.166 25.039C343.166 22.417 343.166 20.422 343.166 19.054C343.166 17.686 343.185 16.679 343.223 16.033C343.261 15.349 343.299 14.798 343.337 14.38C342.653 14.418 341.969 14.456 341.285 14.494C340.601 14.532 339.917 14.57 339.233 14.608V12.1H352.058V13.981C350.918 14.019 350.063 14.266 349.493 14.722C348.961 15.14 348.6 15.843 348.41 16.831C348.22 17.781 348.125 19.035 348.125 20.593C348.125 22.113 348.125 24.013 348.125 26.293C348.163 27.585 348.486 28.782 349.094 29.884C349.702 30.986 350.652 31.879 351.944 32.563C353.236 33.209 354.927 33.532 357.017 33.532C358.689 33.494 360.247 33.304 361.691 32.962C363.173 32.582 364.408 32.088 365.396 31.48V18.484C365.396 17.724 365.415 17.002 365.453 16.318C365.491 15.596 365.529 14.95 365.567 14.38C364.883 14.418 364.199 14.456 363.515 14.494C362.831 14.532 362.147 14.57 361.463 14.608V12.1H374.288V13.981C372.882 14.019 371.894 14.342 371.324 14.95C370.792 15.558 370.488 16.375 370.412 17.401C370.374 18.427 370.355 19.624 370.355 20.992V45.217C370.355 46.243 370.336 47.136 370.298 47.896C370.298 48.618 370.26 49.226 370.184 49.72C370.868 49.682 371.552 49.644 372.236 49.606C372.92 49.568 373.604 49.53 374.288 49.492V52H361.463ZM416.134 24.127C416.096 21.885 415.868 20.023 415.45 18.541C415.032 17.059 414.291 15.957 413.227 15.235C412.201 14.475 410.7 14.114 408.724 14.152H403.879L403.822 45.217C403.822 46.243 403.803 47.136 403.765 47.896C403.765 48.618 403.727 49.226 403.651 49.72C404.449 49.682 405.228 49.644 405.988 49.606C406.786 49.568 407.584 49.53 408.382 49.492V52H394.987V50.119C396.431 50.043 397.4 49.701 397.894 49.093C398.426 48.485 398.711 47.668 398.749 46.642C398.825 45.578 398.863 44.4 398.863 43.108L398.92 14.209L393.049 14.266C390.655 14.266 388.964 15.064 387.976 16.66C386.988 18.256 386.494 20.745 386.494 24.127H384.385L384.727 12.1H417.958L418.3 24.127H416.134Z" fill="#1F3622"></path><path d="M451.374 52V50.119C452.818 50.043 453.806 49.72 454.338 49.15C454.87 48.542 455.155 47.725 455.193 46.699C455.269 45.635 455.307 44.438 455.307 43.108V18.484C455.307 17.724 455.326 17.002 455.364 16.318C455.402 15.596 455.44 14.95 455.478 14.38C454.794 14.418 454.11 14.456 453.426 14.494C452.742 14.532 452.058 14.57 451.374 14.608V12.1H488.481V13.981C487.075 14.019 486.087 14.342 485.517 14.95C484.985 15.558 484.681 16.375 484.605 17.401C484.567 18.427 484.548 19.624 484.548 20.992V45.217C484.548 46.243 484.529 47.136 484.491 47.896C484.491 48.618 484.453 49.226 484.377 49.72C485.061 49.682 485.745 49.644 486.429 49.606C487.113 49.568 487.797 49.53 488.481 49.492V52H475.599V50.119C477.043 50.043 478.031 49.72 478.563 49.15C479.133 48.542 479.437 47.725 479.475 46.699C479.551 45.635 479.589 44.438 479.589 43.108V14.323L464.199 14.551C463.059 14.589 462.204 14.817 461.634 15.235C461.102 15.615 460.741 16.147 460.551 16.831C460.399 17.515 460.304 18.313 460.266 19.225V45.217C460.266 46.243 460.247 47.136 460.209 47.896C460.209 48.618 460.171 49.226 460.095 49.72C460.779 49.682 461.463 49.644 462.147 49.606C462.831 49.568 463.515 49.53 464.199 49.492V52H451.374ZM530.304 24.127C530.266 21.885 530.038 20.023 529.62 18.541C529.202 17.059 528.461 15.957 527.397 15.235C526.371 14.475 524.87 14.114 522.894 14.152H518.049L517.992 45.217C517.992 46.243 517.973 47.136 517.935 47.896C517.935 48.618 517.897 49.226 517.821 49.72C518.619 49.682 519.398 49.644 520.158 49.606C520.956 49.568 521.754 49.53 522.552 49.492V52H509.157V50.119C510.601 50.043 511.57 49.701 512.064 49.093C512.596 48.485 512.881 47.668 512.919 46.642C512.995 45.578 513.033 44.4 513.033 43.108L513.09 14.209L507.219 14.266C504.825 14.266 503.134 15.064 502.146 16.66C501.158 18.256 500.664 20.745 500.664 24.127H498.555L498.897 12.1H532.128L532.47 24.127H530.304Z" fill="#1F3622"></path><path d="M597.149 24.811C596.769 21.239 595.515 18.465 593.387 16.489C591.297 14.513 588.599 13.525 585.293 13.525C583.279 13.525 581.379 13.962 579.593 14.836C577.845 15.672 576.306 16.888 574.976 18.484C573.646 20.08 572.601 21.999 571.841 24.241C571.081 26.483 570.701 29.01 570.701 31.822C570.701 35.394 571.385 38.548 572.753 41.284C574.121 44.02 575.964 46.148 578.282 47.668C580.6 49.188 583.165 49.948 585.977 49.948C588.447 49.948 590.879 49.397 593.273 48.295C595.667 47.155 597.624 45.521 599.144 43.393L600.626 44.59C598.992 46.832 597.225 48.561 595.325 49.777C593.425 50.993 591.525 51.81 589.625 52.228C587.763 52.684 586.053 52.912 584.495 52.912C581.645 52.912 579.023 52.399 576.629 51.373C574.273 50.347 572.221 48.922 570.473 47.098C568.763 45.236 567.433 43.089 566.483 40.657C565.571 38.187 565.115 35.527 565.115 32.677C565.115 29.979 565.514 27.357 566.312 24.811C567.148 22.265 568.383 19.966 570.017 17.914C571.651 15.862 573.703 14.228 576.173 13.012C578.681 11.796 581.588 11.188 584.894 11.188C587.022 11.188 589.036 11.473 590.936 12.043C592.836 12.613 594.66 13.487 596.408 14.665L596.123 11.587H599.201V24.811H597.149ZM635.808 22.075C635.808 19.833 635.466 18.142 634.782 17.002C634.098 15.824 633.186 15.045 632.046 14.665C630.906 14.247 629.614 14.057 628.17 14.095L624.009 14.209C622.603 14.247 621.634 14.589 621.102 15.235C620.57 15.843 620.266 16.66 620.19 17.686C620.114 18.712 620.076 19.89 620.076 21.22V29.371L624.693 29.257C627.847 29.143 630.469 29.352 632.559 29.884C634.687 30.378 636.397 31.119 637.689 32.107C638.981 33.095 639.893 34.311 640.425 35.755C640.995 37.161 641.28 38.719 641.28 40.429C641.28 42.861 640.691 44.951 639.513 46.699C638.335 48.409 636.739 49.72 634.725 50.632C632.711 51.544 630.412 52 627.828 52H611.184V50.119C612.628 50.081 613.616 49.758 614.148 49.15C614.68 48.504 614.965 47.649 615.003 46.585C615.079 45.483 615.117 44.229 615.117 42.823V18.484C615.117 17.724 615.136 17.002 615.174 16.318C615.212 15.596 615.25 14.95 615.288 14.38C614.604 14.418 613.92 14.456 613.236 14.494C612.552 14.532 611.868 14.57 611.184 14.608V12.1H637.632L637.917 22.075H635.808ZM620.076 45.274C620.076 46.3 620.057 47.174 620.019 47.896C620.019 48.618 619.981 49.226 619.905 49.72C620.513 49.758 621.235 49.796 622.071 49.834C622.945 49.834 623.743 49.834 624.465 49.834C625.225 49.834 625.719 49.834 625.947 49.834C628.873 49.834 631.21 49.074 632.958 47.554C634.744 46.034 635.637 43.773 635.637 40.771C635.637 38.263 635.181 36.344 634.269 35.014C633.395 33.646 632.217 32.696 630.735 32.164C629.291 31.632 627.695 31.366 625.947 31.366C624.807 31.366 623.762 31.385 622.812 31.423C621.9 31.423 620.988 31.461 620.076 31.537V45.274Z" fill="#1F3622"></path><path d="M675.628 52V50.119C677.072 50.081 678.06 49.758 678.592 49.15C679.124 48.504 679.409 47.649 679.447 46.585C679.523 45.483 679.561 44.229 679.561 42.823V18.883C679.561 17.857 679.58 16.983 679.618 16.261C679.656 15.501 679.694 14.874 679.732 14.38C679.048 14.418 678.364 14.456 677.68 14.494C676.996 14.532 676.312 14.57 675.628 14.608V12.1C677.718 12.062 679.808 12.043 681.898 12.043C684.026 12.005 686.23 11.986 688.51 11.986C692.918 11.986 696.357 12.765 698.827 14.323C701.335 15.881 702.551 18.351 702.475 21.733C702.475 22.949 702.114 24.165 701.392 25.381C700.708 26.597 699.663 27.68 698.257 28.63C696.889 29.542 695.16 30.188 693.07 30.568V30.682C697.25 30.682 700.404 31.651 702.532 33.589C704.66 35.489 705.724 37.902 705.724 40.828C705.724 43.146 705.135 45.141 703.957 46.813C702.779 48.485 701.183 49.777 699.169 50.689C697.155 51.563 694.856 52 692.272 52H675.628ZM684.349 49.72C684.957 49.758 685.679 49.796 686.515 49.834C687.389 49.834 688.187 49.834 688.909 49.834C689.669 49.834 690.163 49.834 690.391 49.834C693.317 49.834 695.673 49.112 697.459 47.668C699.283 46.186 700.195 44.02 700.195 41.17C700.195 38.852 699.739 37.047 698.827 35.755C697.915 34.463 696.718 33.551 695.236 33.019C693.754 32.487 692.139 32.221 690.391 32.221C689.251 32.221 688.206 32.24 687.256 32.278C686.344 32.278 685.432 32.316 684.52 32.392V45.274C684.52 46.3 684.501 47.174 684.463 47.896C684.463 48.618 684.425 49.226 684.349 49.72ZM684.52 30.169L688.681 30.055C690.847 30.017 692.557 29.58 693.811 28.744C695.065 27.87 695.958 26.787 696.49 25.495C697.06 24.203 697.326 22.854 697.288 21.448C697.25 19.396 696.775 17.838 695.863 16.774C694.989 15.71 693.906 14.988 692.614 14.608C691.322 14.228 690.049 14.038 688.795 14.038C687.541 14.038 686.61 14.209 686.002 14.551C685.394 14.893 684.995 15.463 684.805 16.261C684.615 17.059 684.52 18.161 684.52 19.567V30.169ZM748.307 24.811C747.927 21.239 746.673 18.465 744.545 16.489C742.455 14.513 739.757 13.525 736.451 13.525C734.437 13.525 732.537 13.962 730.751 14.836C729.003 15.672 727.464 16.888 726.134 18.484C724.804 20.08 723.759 21.999 722.999 24.241C722.239 26.483 721.859 29.01 721.859 31.822C721.859 35.394 722.543 38.548 723.911 41.284C725.279 44.02 727.122 46.148 729.44 47.668C731.758 49.188 734.323 49.948 737.135 49.948C739.605 49.948 742.037 49.397 744.431 48.295C746.825 47.155 748.782 45.521 750.302 43.393L751.784 44.59C750.15 46.832 748.383 48.561 746.483 49.777C744.583 50.993 742.683 51.81 740.783 52.228C738.921 52.684 737.211 52.912 735.653 52.912C732.803 52.912 730.181 52.399 727.787 51.373C725.431 50.347 723.379 48.922 721.631 47.098C719.921 45.236 718.591 43.089 717.641 40.657C716.729 38.187 716.273 35.527 716.273 32.677C716.273 29.979 716.672 27.357 717.47 24.811C718.306 22.265 719.541 19.966 721.175 17.914C722.809 15.862 724.861 14.228 727.331 13.012C729.839 11.796 732.746 11.188 736.052 11.188C738.18 11.188 740.194 11.473 742.094 12.043C743.994 12.613 745.818 13.487 747.566 14.665L747.281 11.587H750.359V24.811H748.307Z" fill="#1F3622"></path><path d="M262.837 171V169.119C264.167 169.043 265.174 168.739 265.858 168.207C266.58 167.675 267.074 166.934 267.34 165.984C267.644 165.034 267.796 163.913 267.796 162.621L267.625 135.717L260.785 140.106L259.645 138.453L270.76 130.188H272.698L272.755 164.787C272.755 165.509 272.736 166.212 272.698 166.896C272.698 167.58 272.66 168.188 272.584 168.72C273.382 168.682 274.18 168.644 274.978 168.606C275.776 168.568 276.574 168.53 277.372 168.492V171H262.837Z" fill="#1F3622"></path><path d="M366.314 171C366.314 168.986 366.618 167.2 367.226 165.642C367.872 164.084 368.727 162.659 369.791 161.367C370.855 160.037 372.052 158.764 373.382 157.548C374.75 156.294 376.137 154.983 377.543 153.615C380.013 151.259 381.799 149.074 382.901 147.06C384.003 145.046 384.554 143.108 384.554 141.246C384.554 139.802 384.345 138.415 383.927 137.085C383.547 135.717 382.844 134.596 381.818 133.722C380.792 132.848 379.367 132.411 377.543 132.411C375.985 132.411 374.598 132.81 373.382 133.608C372.166 134.368 371.349 135.318 370.931 136.458C371.311 136.838 371.577 137.256 371.729 137.712C371.881 138.13 371.957 138.548 371.957 138.966C371.957 139.308 371.862 139.688 371.672 140.106C371.52 140.524 371.235 140.885 370.817 141.189C370.399 141.493 369.848 141.645 369.164 141.645C368.328 141.607 367.682 141.284 367.226 140.676C366.77 140.068 366.542 139.346 366.542 138.51C366.542 137.712 366.789 136.838 367.283 135.888C367.777 134.9 368.518 133.988 369.506 133.152C370.532 132.278 371.786 131.575 373.268 131.043C374.75 130.473 376.479 130.188 378.455 130.188C379.975 130.188 381.438 130.378 382.844 130.758C384.288 131.1 385.58 131.67 386.72 132.468C387.86 133.266 388.753 134.33 389.399 135.66C390.083 136.952 390.425 138.567 390.425 140.505C390.425 141.455 390.216 142.481 389.798 143.583C389.418 144.685 388.772 145.882 387.86 147.174C386.986 148.428 385.846 149.777 384.44 151.221C383.034 152.627 381.305 154.166 379.253 155.838C376.669 157.966 374.541 159.98 372.869 161.88C371.235 163.742 370.285 165.338 370.019 166.668L380.108 166.953C381.97 166.991 383.604 166.991 385.01 166.953C386.454 166.915 387.575 166.63 388.373 166.098C389.209 165.528 389.627 164.502 389.627 163.02H391.337L390.995 171H366.314Z" fill="#1F3622"></path><path d="M489.671 171.912C486.935 171.912 484.674 171.513 482.888 170.715C481.102 169.879 479.772 168.853 478.898 167.637C478.062 166.421 477.644 165.262 477.644 164.16C477.644 163.286 477.872 162.564 478.328 161.994C478.784 161.386 479.43 161.063 480.266 161.025C480.95 160.987 481.482 161.12 481.862 161.424C482.28 161.69 482.565 162.032 482.717 162.45C482.869 162.868 482.945 163.248 482.945 163.59C482.945 163.97 482.888 164.35 482.774 164.73C482.66 165.11 482.508 165.49 482.318 165.87C482.698 167.162 483.553 168.093 484.883 168.663C486.251 169.233 487.714 169.518 489.272 169.518C491.97 169.518 494.117 168.777 495.713 167.295C497.347 165.813 498.164 163.666 498.164 160.854C498.164 159.182 497.898 157.605 497.366 156.123C496.834 154.603 495.846 153.368 494.402 152.418C492.958 151.468 490.849 151.031 488.075 151.107C487.771 151.107 487.448 151.126 487.106 151.164C486.764 151.164 486.384 151.183 485.966 151.221V148.656C486.384 148.656 486.783 148.656 487.163 148.656C487.543 148.656 487.923 148.656 488.303 148.656C490.317 148.656 491.894 148.2 493.034 147.288C494.174 146.376 494.991 145.293 495.485 144.039C495.979 142.785 496.226 141.626 496.226 140.562C496.226 139.004 496.017 137.617 495.599 136.401C495.219 135.147 494.535 134.178 493.547 133.494C492.559 132.772 491.191 132.411 489.443 132.411C487.733 132.411 486.27 132.867 485.054 133.779C483.838 134.653 483.078 135.565 482.774 136.515C483.116 136.895 483.344 137.275 483.458 137.655C483.61 138.035 483.686 138.434 483.686 138.852C483.686 139.156 483.591 139.517 483.401 139.935C483.249 140.315 482.983 140.638 482.603 140.904C482.223 141.17 481.71 141.303 481.064 141.303C480.266 141.303 479.658 141.018 479.24 140.448C478.822 139.878 478.613 139.194 478.613 138.396C478.613 137.332 479.031 136.173 479.867 134.919C480.703 133.627 481.976 132.525 483.686 131.613C485.434 130.663 487.619 130.188 490.241 130.188C492.293 130.188 494.193 130.511 495.941 131.157C497.689 131.803 499.095 132.867 500.159 134.349C501.223 135.793 501.755 137.712 501.755 140.106C501.755 141.284 501.451 142.481 500.843 143.697C500.273 144.875 499.304 145.977 497.936 147.003C496.606 148.029 494.763 148.903 492.407 149.625C496.017 150.005 498.848 151.164 500.9 153.102C502.99 155.04 504.035 157.491 504.035 160.455C504.035 163.039 503.351 165.186 501.983 166.896C500.653 168.568 498.886 169.822 496.682 170.658C494.516 171.494 492.179 171.912 489.671 171.912Z" fill="#1F3622"></path><path d="M610.752 164.787C610.752 165.547 610.733 166.269 610.695 166.953C610.695 167.637 610.638 168.264 610.524 168.834C611.284 168.796 612.025 168.777 612.747 168.777C613.469 168.739 614.191 168.701 614.913 168.663V171H600.606V169.119H601.005C602.297 169.005 603.266 168.644 603.912 168.036C604.558 167.428 604.995 166.611 605.223 165.585C605.451 164.559 605.565 163.343 605.565 161.937V159.999H588.237V157.206L608.871 130.188H610.752V156.579L616.509 156.636V159.999H610.752V164.787ZM605.451 138.282L591.999 156.294L605.565 156.465V138.282H605.451Z" fill="#1F3622"></path><path d="M711.948 171.912C709.516 171.912 707.445 171.513 705.735 170.715C704.025 169.879 702.714 168.853 701.802 167.637C700.89 166.421 700.434 165.262 700.434 164.16C700.434 163.286 700.662 162.564 701.118 161.994C701.574 161.386 702.22 161.063 703.056 161.025C703.74 160.987 704.272 161.12 704.652 161.424C705.07 161.69 705.355 162.032 705.507 162.45C705.659 162.868 705.735 163.248 705.735 163.59C705.735 163.97 705.678 164.35 705.564 164.73C705.45 165.11 705.298 165.471 705.108 165.813C705.26 166.725 705.735 167.485 706.533 168.093C707.331 168.663 708.243 169.081 709.269 169.347C710.333 169.613 711.302 169.727 712.176 169.689C714.038 169.613 715.539 169.119 716.679 168.207C717.819 167.257 718.655 166.06 719.187 164.616C719.757 163.172 720.042 161.652 720.042 160.056C720.042 158.992 719.947 157.814 719.757 156.522C719.605 155.23 719.225 154.014 718.617 152.874C718.047 151.696 717.173 150.727 715.995 149.967C714.817 149.207 713.221 148.827 711.207 148.827C710.561 148.827 709.763 148.903 708.813 149.055C707.901 149.207 706.97 149.435 706.02 149.739C705.108 150.043 704.329 150.404 703.683 150.822L702.087 149.34L701.973 131.1H716.736C718.902 131.1 720.384 130.815 721.182 130.245C722.018 129.637 722.436 128.687 722.436 127.395H723.975L723.633 134.919L704.595 135.318V147.858C705.507 147.478 706.685 147.117 708.129 146.775C709.611 146.433 711.188 146.262 712.86 146.262C715.216 146.262 717.211 146.642 718.845 147.402C720.517 148.124 721.866 149.112 722.892 150.366C723.956 151.582 724.735 152.95 725.229 154.47C725.723 155.952 725.97 157.472 725.97 159.03C725.97 161.842 725.305 164.217 723.975 166.155C722.683 168.055 720.973 169.499 718.845 170.487C716.717 171.437 714.418 171.912 711.948 171.912Z" fill="#1F3622"></path><path d="M268.729 271.912C267.399 271.912 266.012 271.741 264.568 271.399C263.124 271.095 261.775 270.582 260.521 269.86C259.305 269.138 258.298 268.169 257.5 266.953C256.74 265.737 256.36 264.236 256.36 262.45C256.36 260.74 256.778 259.182 257.614 257.776C258.45 256.332 259.514 255.04 260.806 253.9C262.136 252.722 263.542 251.677 265.024 250.765C262.136 249.017 260.103 247.288 258.925 245.578C257.747 243.83 257.158 242.139 257.158 240.505C257.158 238.719 257.5 237.18 258.184 235.888C258.906 234.558 259.856 233.475 261.034 232.639C262.212 231.803 263.504 231.195 264.91 230.815C266.354 230.397 267.798 230.188 269.242 230.188C271.18 230.188 272.985 230.549 274.657 231.271C276.367 231.955 277.735 232.981 278.761 234.349C279.825 235.717 280.357 237.389 280.357 239.365C280.357 240.847 279.996 242.215 279.274 243.469C278.59 244.723 277.659 245.844 276.481 246.832C275.341 247.782 274.068 248.618 272.662 249.34C274.372 250.328 275.949 251.468 277.393 252.76C278.837 254.014 279.996 255.382 280.87 256.864C281.744 258.346 282.181 259.904 282.181 261.538C282.181 263.932 281.554 265.908 280.3 267.466C279.046 268.986 277.393 270.107 275.341 270.829C273.289 271.551 271.085 271.912 268.729 271.912ZM268.843 269.632C271.313 269.67 273.213 269.062 274.543 267.808C275.911 266.554 276.595 264.825 276.595 262.621C276.595 260.645 275.892 258.726 274.486 256.864C273.118 254.964 270.686 253.273 267.19 251.791C265.1 253.311 263.58 254.945 262.63 256.693C261.718 258.441 261.224 260.018 261.148 261.424C260.996 263.856 261.623 265.832 263.029 267.352C264.473 268.834 266.411 269.594 268.843 269.632ZM270.667 248.2C272.339 247.06 273.612 245.768 274.486 244.324C275.398 242.88 275.873 241.455 275.911 240.049C275.987 237.579 275.417 235.698 274.201 234.406C272.985 233.114 271.37 232.449 269.356 232.411C267.874 232.373 266.62 232.696 265.594 233.38C264.568 234.026 263.789 234.881 263.257 235.945C262.725 236.971 262.459 238.073 262.459 239.251C262.459 241.341 263.238 243.165 264.796 244.723C266.392 246.243 268.349 247.402 270.667 248.2Z" fill="#1F3622"></path><path d="M158.978 271.912C158.256 271.836 157.743 271.57 157.439 271.114C157.135 270.658 156.983 270.088 156.983 269.404C156.983 268.568 157.192 267.485 157.61 266.155C158.066 264.825 158.598 263.419 159.206 261.937C159.814 260.417 160.365 259.03 160.859 257.776C161.581 255.99 162.436 253.824 163.424 251.278C164.412 248.732 165.495 246.053 166.673 243.241C167.889 240.391 169.124 237.655 170.378 235.033L155.33 235.09C153.81 235.128 152.613 235.489 151.739 236.173C150.903 236.857 150.485 237.978 150.485 239.536H149.117V231.1H173V234.976C171.632 237.826 170.435 240.543 169.409 243.127C168.421 245.711 167.528 248.314 166.73 250.936C165.932 253.52 165.172 256.237 164.45 259.087C163.728 261.937 162.949 265.053 162.113 268.435C161.885 269.347 161.524 270.164 161.03 270.886C160.574 271.608 159.89 271.95 158.978 271.912Z" fill="#1F3622"></path><path d="M47.3384 271.912C43.9564 271.912 41.2584 271.114 39.2444 269.518C37.2684 267.922 35.8434 265.661 34.9694 262.735C34.1334 259.771 33.7154 256.275 33.7154 252.247C33.7154 250.879 33.8294 249.264 34.0574 247.402C34.3234 245.502 34.7794 243.564 35.4254 241.588C36.0714 239.574 36.9644 237.712 38.1044 236.002C39.2824 234.254 40.7834 232.848 42.6074 231.784C44.4314 230.72 46.6354 230.188 49.2194 230.188C51.4994 230.188 53.3804 230.606 54.8624 231.442C56.3444 232.24 57.4464 233.209 58.1684 234.349C58.9284 235.451 59.3084 236.477 59.3084 237.427C59.3084 238.225 59.0994 238.909 58.6814 239.479C58.3014 240.011 57.6934 240.315 56.8574 240.391C55.9074 240.429 55.2424 240.163 54.8624 239.593C54.4824 239.023 54.2924 238.491 54.2924 237.997C54.2924 237.617 54.3494 237.218 54.4634 236.8C54.5774 236.382 54.7484 235.983 54.9764 235.603C54.7864 234.919 54.1784 234.197 53.1524 233.437C52.1644 232.677 50.8914 232.297 49.3334 232.297C47.5854 232.297 46.1034 232.753 44.8874 233.665C43.7094 234.577 42.7404 235.774 41.9804 237.256C41.2584 238.738 40.6884 240.334 40.2704 242.044C39.8524 243.716 39.5484 245.331 39.3584 246.889C39.2064 248.447 39.1114 249.777 39.0734 250.879C39.7194 250.043 40.4984 249.264 41.4104 248.542C42.3224 247.82 43.3864 247.231 44.6024 246.775C45.8184 246.319 47.1674 246.091 48.6494 246.091C50.9294 246.091 52.8294 246.49 54.3494 247.288C55.9074 248.048 57.1424 249.055 58.0544 250.309C59.0044 251.563 59.6694 252.95 60.0494 254.47C60.4674 255.952 60.6764 257.415 60.6764 258.859C60.6764 261.215 60.0874 263.4 58.9094 265.414C57.7694 267.39 56.1924 268.967 54.1784 270.145C52.1644 271.323 49.8844 271.912 47.3384 271.912ZM47.4524 269.689C49.2384 269.689 50.6824 269.252 51.7844 268.378C52.8864 267.466 53.6844 266.288 54.1784 264.844C54.6724 263.362 54.9194 261.785 54.9194 260.113C54.9194 259.049 54.8244 257.871 54.6344 256.579C54.4444 255.249 54.0834 253.995 53.5514 252.817C53.0574 251.601 52.3164 250.613 51.3284 249.853C50.3404 249.055 49.0484 248.656 47.4524 248.656C46.2744 248.656 45.1154 248.96 43.9754 249.568C42.8354 250.138 41.8284 250.898 40.9544 251.848C40.1184 252.798 39.5104 253.824 39.1304 254.926C39.2444 256.75 39.4534 258.536 39.7574 260.284C40.0994 262.032 40.5744 263.609 41.1824 265.015C41.8284 266.421 42.6644 267.561 43.6904 268.435C44.7164 269.271 45.9704 269.689 47.4524 269.689Z" fill="#1F3622"></path><path d="M377.172 271.912C374.702 271.912 372.688 271.551 371.13 270.829C369.61 270.069 368.508 269.138 367.824 268.036C367.14 266.934 366.798 265.889 366.798 264.901C366.798 264.065 367.007 263.362 367.425 262.792C367.843 262.222 368.47 261.918 369.306 261.88C370.218 261.842 370.864 262.127 371.244 262.735C371.662 263.305 371.871 263.837 371.871 264.331C371.871 264.711 371.795 265.11 371.643 265.528C371.529 265.908 371.339 266.288 371.073 266.668C371.339 267.504 371.909 268.226 372.783 268.834C373.695 269.442 375.063 269.746 376.887 269.746C378.635 269.746 380.098 269.328 381.276 268.492C382.454 267.656 383.404 266.554 384.126 265.186C384.848 263.78 385.399 262.26 385.779 260.626C386.159 258.954 386.406 257.301 386.52 255.667C386.672 254.033 386.748 252.57 386.748 251.278C385.798 252.57 384.525 253.691 382.929 254.641C381.333 255.591 379.414 256.066 377.172 256.066C374.892 256.066 372.973 255.686 371.415 254.926C369.895 254.128 368.679 253.102 367.767 251.848C366.893 250.594 366.247 249.226 365.829 247.744C365.449 246.262 365.259 244.799 365.259 243.355C365.259 240.885 365.81 238.662 366.912 236.686C368.014 234.672 369.572 233.095 371.586 231.955C373.6 230.777 375.975 230.188 378.711 230.188C381.409 230.188 383.613 230.701 385.323 231.727C387.071 232.753 388.439 234.197 389.427 236.059C390.415 237.883 391.099 240.03 391.479 242.5C391.897 244.97 392.106 247.649 392.106 250.537C392.106 252.209 391.992 254.014 391.764 255.952C391.574 257.852 391.175 259.752 390.567 261.652C389.997 263.514 389.161 265.224 388.059 266.782C386.957 268.302 385.513 269.537 383.727 270.487C381.941 271.437 379.756 271.912 377.172 271.912ZM378.369 253.501C379.585 253.501 380.744 253.216 381.846 252.646C382.986 252.038 383.993 251.259 384.867 250.309C385.741 249.359 386.349 248.333 386.691 247.231C386.577 245.445 386.368 243.678 386.064 241.93C385.76 240.182 385.285 238.586 384.639 237.142C384.031 235.698 383.214 234.539 382.188 233.665C381.162 232.791 379.87 232.354 378.312 232.354C376.678 232.354 375.31 232.829 374.208 233.779C373.106 234.691 372.27 235.888 371.7 237.37C371.168 238.852 370.902 240.429 370.902 242.101C370.902 243.165 370.997 244.362 371.187 245.692C371.377 246.984 371.719 248.238 372.213 249.454C372.745 250.632 373.505 251.601 374.493 252.361C375.481 253.121 376.773 253.501 378.369 253.501Z" fill="#1F3622"></path><path d="M467.135 271V269.119C468.465 269.043 469.472 268.739 470.156 268.207C470.878 267.675 471.372 266.934 471.638 265.984C471.942 265.034 472.094 263.913 472.094 262.621L471.923 235.717L465.083 240.106L463.943 238.453L475.058 230.188H476.996L477.053 264.787C477.053 265.509 477.034 266.212 476.996 266.896C476.996 267.58 476.958 268.188 476.882 268.72C477.68 268.682 478.478 268.644 479.276 268.606C480.074 268.568 480.872 268.53 481.67 268.492V271H467.135ZM501.407 271.912C498.519 271.912 496.125 271.304 494.225 270.088C492.325 268.834 490.843 267.2 489.779 265.186C488.715 263.134 487.955 260.892 487.499 258.46C487.081 256.028 486.872 253.615 486.872 251.221C486.872 248.827 487.138 246.395 487.67 243.925C488.24 241.455 489.114 239.194 490.292 237.142C491.47 235.052 492.99 233.38 494.852 232.126C496.714 230.834 498.975 230.188 501.635 230.188C504.409 230.188 506.708 230.815 508.532 232.069C510.394 233.323 511.857 234.976 512.921 237.028C514.023 239.042 514.802 241.265 515.258 243.697C515.714 246.129 515.942 248.542 515.942 250.936C515.942 253.292 515.676 255.705 515.144 258.175C514.612 260.645 513.776 262.925 512.636 265.015C511.496 267.067 509.995 268.739 508.133 270.031C506.309 271.285 504.067 271.912 501.407 271.912ZM501.749 269.689C503.383 269.689 504.732 269.176 505.796 268.15C506.86 267.124 507.696 265.756 508.304 264.046C508.95 262.336 509.406 260.455 509.672 258.403C509.938 256.313 510.071 254.223 510.071 252.133C510.071 249.815 509.938 247.497 509.672 245.179C509.406 242.861 508.95 240.733 508.304 238.795C507.658 236.857 506.784 235.299 505.682 234.121C504.58 232.943 503.193 232.354 501.521 232.354C499.887 232.354 498.5 232.867 497.36 233.893C496.258 234.919 495.365 236.287 494.681 237.997C493.997 239.707 493.503 241.607 493.199 243.697C492.895 245.787 492.743 247.896 492.743 250.024C492.743 251.62 492.819 253.311 492.971 255.097C493.123 256.883 493.389 258.65 493.769 260.398C494.187 262.108 494.738 263.666 495.422 265.072C496.106 266.478 496.961 267.599 497.987 268.435C499.013 269.271 500.267 269.689 501.749 269.689Z" fill="#1F3622"></path><path d="M586.455 271V269.119C587.785 269.043 588.792 268.739 589.476 268.207C590.198 267.675 590.692 266.934 590.958 265.984C591.262 265.034 591.414 263.913 591.414 262.621L591.243 235.717L584.403 240.106L583.263 238.453L594.378 230.188H596.316L596.373 264.787C596.373 265.509 596.354 266.212 596.316 266.896C596.316 267.58 596.278 268.188 596.202 268.72C597 268.682 597.798 268.644 598.596 268.606C599.394 268.568 600.192 268.53 600.99 268.492V271H586.455ZM607.218 271V269.119C608.548 269.043 609.555 268.739 610.239 268.207C610.961 267.675 611.455 266.934 611.721 265.984C612.025 265.034 612.177 263.913 612.177 262.621L612.006 235.717L605.166 240.106L604.026 238.453L615.141 230.188H617.079L617.136 264.787C617.136 265.509 617.117 266.212 617.079 266.896C617.079 267.58 617.041 268.188 616.965 268.72C617.763 268.682 618.561 268.644 619.359 268.606C620.157 268.568 620.955 268.53 621.753 268.492V271H607.218Z" fill="#1F3622"></path><path d="M691.529 271V269.119C692.859 269.043 693.866 268.739 694.55 268.207C695.272 267.675 695.766 266.934 696.032 265.984C696.336 265.034 696.488 263.913 696.488 262.621L696.317 235.717L689.477 240.106L688.337 238.453L699.452 230.188H701.39L701.447 264.787C701.447 265.509 701.428 266.212 701.39 266.896C701.39 267.58 701.352 268.188 701.276 268.72C702.074 268.682 702.872 268.644 703.67 268.606C704.468 268.568 705.266 268.53 706.064 268.492V271H691.529ZM710.696 271C710.696 268.986 711 267.2 711.608 265.642C712.254 264.084 713.109 262.659 714.173 261.367C715.237 260.037 716.434 258.764 717.764 257.548C719.132 256.294 720.519 254.983 721.925 253.615C724.395 251.259 726.181 249.074 727.283 247.06C728.385 245.046 728.936 243.108 728.936 241.246C728.936 239.802 728.727 238.415 728.309 237.085C727.929 235.717 727.226 234.596 726.2 233.722C725.174 232.848 723.749 232.411 721.925 232.411C720.367 232.411 718.98 232.81 717.764 233.608C716.548 234.368 715.731 235.318 715.313 236.458C715.693 236.838 715.959 237.256 716.111 237.712C716.263 238.13 716.339 238.548 716.339 238.966C716.339 239.308 716.244 239.688 716.054 240.106C715.902 240.524 715.617 240.885 715.199 241.189C714.781 241.493 714.23 241.645 713.546 241.645C712.71 241.607 712.064 241.284 711.608 240.676C711.152 240.068 710.924 239.346 710.924 238.51C710.924 237.712 711.171 236.838 711.665 235.888C712.159 234.9 712.9 233.988 713.888 233.152C714.914 232.278 716.168 231.575 717.65 231.043C719.132 230.473 720.861 230.188 722.837 230.188C724.357 230.188 725.82 230.378 727.226 230.758C728.67 231.1 729.962 231.67 731.102 232.468C732.242 233.266 733.135 234.33 733.781 235.66C734.465 236.952 734.807 238.567 734.807 240.505C734.807 241.455 734.598 242.481 734.18 243.583C733.8 244.685 733.154 245.882 732.242 247.174C731.368 248.428 730.228 249.777 728.822 251.221C727.416 252.627 725.687 254.166 723.635 255.838C721.051 257.966 718.923 259.98 717.251 261.88C715.617 263.742 714.667 265.338 714.401 266.668L724.49 266.953C726.352 266.991 727.986 266.991 729.392 266.953C730.836 266.915 731.957 266.63 732.755 266.098C733.591 265.528 734.009 264.502 734.009 263.02H735.719L735.377 271H710.696Z" fill="#1F3622"></path><path d="M247.306 371V369.119C248.636 369.043 249.643 368.739 250.327 368.207C251.049 367.675 251.543 366.934 251.809 365.984C252.113 365.034 252.265 363.913 252.265 362.621L252.094 335.717L245.254 340.106L244.114 338.453L255.229 330.188H257.167L257.224 364.787C257.224 365.509 257.205 366.212 257.167 366.896C257.167 367.58 257.129 368.188 257.053 368.72C257.851 368.682 258.649 368.644 259.447 368.606C260.245 368.568 261.043 368.53 261.841 368.492V371H247.306ZM278.329 371.912C275.897 371.912 273.826 371.513 272.116 370.715C270.406 369.879 269.095 368.853 268.183 367.637C267.271 366.421 266.815 365.262 266.815 364.16C266.815 363.286 267.043 362.564 267.499 361.994C267.955 361.386 268.601 361.063 269.437 361.025C270.121 360.987 270.653 361.12 271.033 361.424C271.451 361.69 271.736 362.032 271.888 362.45C272.04 362.868 272.116 363.248 272.116 363.59C272.116 363.97 272.059 364.35 271.945 364.73C271.831 365.11 271.679 365.471 271.489 365.813C271.641 366.725 272.116 367.485 272.914 368.093C273.712 368.663 274.624 369.081 275.65 369.347C276.714 369.613 277.683 369.727 278.557 369.689C280.419 369.613 281.92 369.119 283.06 368.207C284.2 367.257 285.036 366.06 285.568 364.616C286.138 363.172 286.423 361.652 286.423 360.056C286.423 358.992 286.328 357.814 286.138 356.522C285.986 355.23 285.606 354.014 284.998 352.874C284.428 351.696 283.554 350.727 282.376 349.967C281.198 349.207 279.602 348.827 277.588 348.827C276.942 348.827 276.144 348.903 275.194 349.055C274.282 349.207 273.351 349.435 272.401 349.739C271.489 350.043 270.71 350.404 270.064 350.822L268.468 349.34L268.354 331.1H283.117C285.283 331.1 286.765 330.815 287.563 330.245C288.399 329.637 288.817 328.687 288.817 327.395H290.356L290.014 334.919L270.976 335.318V347.858C271.888 347.478 273.066 347.117 274.51 346.775C275.992 346.433 277.569 346.262 279.241 346.262C281.597 346.262 283.592 346.642 285.226 347.402C286.898 348.124 288.247 349.112 289.273 350.366C290.337 351.582 291.116 352.95 291.61 354.47C292.104 355.952 292.351 357.472 292.351 359.03C292.351 361.842 291.686 364.217 290.356 366.155C289.064 368.055 287.354 369.499 285.226 370.487C283.098 371.437 280.799 371.912 278.329 371.912Z" fill="#1F3622"></path><path d="M139.39 371V369.119C140.72 369.043 141.727 368.739 142.411 368.207C143.133 367.675 143.627 366.934 143.893 365.984C144.197 365.034 144.349 363.913 144.349 362.621L144.178 335.717L137.338 340.106L136.198 338.453L147.313 330.188H149.251L149.308 364.787C149.308 365.509 149.289 366.212 149.251 366.896C149.251 367.58 149.213 368.188 149.137 368.72C149.935 368.682 150.733 368.644 151.531 368.606C152.329 368.568 153.127 368.53 153.925 368.492V371H139.39ZM179.134 364.787C179.134 365.547 179.115 366.269 179.077 366.953C179.077 367.637 179.02 368.264 178.906 368.834C179.666 368.796 180.407 368.777 181.129 368.777C181.851 368.739 182.573 368.701 183.295 368.663V371H168.988V369.119H169.387C170.679 369.005 171.648 368.644 172.294 368.036C172.94 367.428 173.377 366.611 173.605 365.585C173.833 364.559 173.947 363.343 173.947 361.937V359.999H156.619V357.206L177.253 330.188H179.134V356.579L184.891 356.636V359.999H179.134V364.787ZM173.833 338.282L160.381 356.294L173.947 356.465V338.282H173.833Z" fill="#1F3622"></path><path d="M24.9724 371V369.119C26.3024 369.043 27.3094 368.739 27.9934 368.207C28.7154 367.675 29.2094 366.934 29.4754 365.984C29.7794 365.034 29.9314 363.913 29.9314 362.621L29.7604 335.717L22.9204 340.106L21.7804 338.453L32.8954 330.188H34.8334L34.8904 364.787C34.8904 365.509 34.8714 366.212 34.8334 366.896C34.8334 367.58 34.7954 368.188 34.7194 368.72C35.5174 368.682 36.3154 368.644 37.1134 368.606C37.9114 368.568 38.7094 368.53 39.5074 368.492V371H24.9724ZM56.0521 371.912C53.3161 371.912 51.0551 371.513 49.2691 370.715C47.4831 369.879 46.1531 368.853 45.2791 367.637C44.4431 366.421 44.0251 365.262 44.0251 364.16C44.0251 363.286 44.2531 362.564 44.7091 361.994C45.1651 361.386 45.8111 361.063 46.6471 361.025C47.3311 360.987 47.8631 361.12 48.2431 361.424C48.6611 361.69 48.9461 362.032 49.0981 362.45C49.2501 362.868 49.3261 363.248 49.3261 363.59C49.3261 363.97 49.2691 364.35 49.1551 364.73C49.0411 365.11 48.8891 365.49 48.6991 365.87C49.0791 367.162 49.9341 368.093 51.2641 368.663C52.6321 369.233 54.0951 369.518 55.6531 369.518C58.3511 369.518 60.4981 368.777 62.0941 367.295C63.7281 365.813 64.5451 363.666 64.5451 360.854C64.5451 359.182 64.2791 357.605 63.7471 356.123C63.2151 354.603 62.2271 353.368 60.7831 352.418C59.3391 351.468 57.2301 351.031 54.4561 351.107C54.1521 351.107 53.8291 351.126 53.4871 351.164C53.1451 351.164 52.7651 351.183 52.3471 351.221V348.656C52.7651 348.656 53.1641 348.656 53.5441 348.656C53.9241 348.656 54.3041 348.656 54.6841 348.656C56.6981 348.656 58.2751 348.2 59.4151 347.288C60.5551 346.376 61.3721 345.293 61.8661 344.039C62.3601 342.785 62.6071 341.626 62.6071 340.562C62.6071 339.004 62.3981 337.617 61.9801 336.401C61.6001 335.147 60.9161 334.178 59.9281 333.494C58.9401 332.772 57.5721 332.411 55.8241 332.411C54.1141 332.411 52.6511 332.867 51.4351 333.779C50.2191 334.653 49.4591 335.565 49.1551 336.515C49.4971 336.895 49.7251 337.275 49.8391 337.655C49.9911 338.035 50.0671 338.434 50.0671 338.852C50.0671 339.156 49.9721 339.517 49.7821 339.935C49.6301 340.315 49.3641 340.638 48.9841 340.904C48.6041 341.17 48.0911 341.303 47.4451 341.303C46.6471 341.303 46.0391 341.018 45.6211 340.448C45.2031 339.878 44.9941 339.194 44.9941 338.396C44.9941 337.332 45.4121 336.173 46.2481 334.919C47.0841 333.627 48.3571 332.525 50.0671 331.613C51.8151 330.663 54.0001 330.188 56.6221 330.188C58.6741 330.188 60.5741 330.511 62.3221 331.157C64.0701 331.803 65.4761 332.867 66.5401 334.349C67.6041 335.793 68.1361 337.712 68.1361 340.106C68.1361 341.284 67.8321 342.481 67.2241 343.697C66.6541 344.875 65.6851 345.977 64.3171 347.003C62.9871 348.029 61.1441 348.903 58.7881 349.625C62.3981 350.005 65.2291 351.164 67.2811 353.102C69.3711 355.04 70.4161 357.491 70.4161 360.455C70.4161 363.039 69.7321 365.186 68.3641 366.896C67.0341 368.568 65.2671 369.822 63.0631 370.658C60.8971 371.494 58.5601 371.912 56.0521 371.912Z" fill="#1F3622"></path><path d="M356.36 371V369.119C357.69 369.043 358.697 368.739 359.381 368.207C360.103 367.675 360.597 366.934 360.863 365.984C361.167 365.034 361.319 363.913 361.319 362.621L361.148 335.717L354.308 340.106L353.168 338.453L364.283 330.188H366.221L366.278 364.787C366.278 365.509 366.259 366.212 366.221 366.896C366.221 367.58 366.183 368.188 366.107 368.72C366.905 368.682 367.703 368.644 368.501 368.606C369.299 368.568 370.097 368.53 370.895 368.492V371H356.36ZM389.72 371.912C386.338 371.912 383.64 371.114 381.626 369.518C379.65 367.922 378.225 365.661 377.351 362.735C376.515 359.771 376.097 356.275 376.097 352.247C376.097 350.879 376.211 349.264 376.439 347.402C376.705 345.502 377.161 343.564 377.807 341.588C378.453 339.574 379.346 337.712 380.486 336.002C381.664 334.254 383.165 332.848 384.989 331.784C386.813 330.72 389.017 330.188 391.601 330.188C393.881 330.188 395.762 330.606 397.244 331.442C398.726 332.24 399.828 333.209 400.55 334.349C401.31 335.451 401.69 336.477 401.69 337.427C401.69 338.225 401.481 338.909 401.063 339.479C400.683 340.011 400.075 340.315 399.239 340.391C398.289 340.429 397.624 340.163 397.244 339.593C396.864 339.023 396.674 338.491 396.674 337.997C396.674 337.617 396.731 337.218 396.845 336.8C396.959 336.382 397.13 335.983 397.358 335.603C397.168 334.919 396.56 334.197 395.534 333.437C394.546 332.677 393.273 332.297 391.715 332.297C389.967 332.297 388.485 332.753 387.269 333.665C386.091 334.577 385.122 335.774 384.362 337.256C383.64 338.738 383.07 340.334 382.652 342.044C382.234 343.716 381.93 345.331 381.74 346.889C381.588 348.447 381.493 349.777 381.455 350.879C382.101 350.043 382.88 349.264 383.792 348.542C384.704 347.82 385.768 347.231 386.984 346.775C388.2 346.319 389.549 346.091 391.031 346.091C393.311 346.091 395.211 346.49 396.731 347.288C398.289 348.048 399.524 349.055 400.436 350.309C401.386 351.563 402.051 352.95 402.431 354.47C402.849 355.952 403.058 357.415 403.058 358.859C403.058 361.215 402.469 363.4 401.291 365.414C400.151 367.39 398.574 368.967 396.56 370.145C394.546 371.323 392.266 371.912 389.72 371.912ZM389.834 369.689C391.62 369.689 393.064 369.252 394.166 368.378C395.268 367.466 396.066 366.288 396.56 364.844C397.054 363.362 397.301 361.785 397.301 360.113C397.301 359.049 397.206 357.871 397.016 356.579C396.826 355.249 396.465 353.995 395.933 352.817C395.439 351.601 394.698 350.613 393.71 349.853C392.722 349.055 391.43 348.656 389.834 348.656C388.656 348.656 387.497 348.96 386.357 349.568C385.217 350.138 384.21 350.898 383.336 351.848C382.5 352.798 381.892 353.824 381.512 354.926C381.626 356.75 381.835 358.536 382.139 360.284C382.481 362.032 382.956 363.609 383.564 365.015C384.21 366.421 385.046 367.561 386.072 368.435C387.098 369.271 388.352 369.689 389.834 369.689Z" fill="#1F3622"></path><path d="M471.7 371V369.119C473.03 369.043 474.037 368.739 474.721 368.207C475.443 367.675 475.937 366.934 476.203 365.984C476.507 365.034 476.659 363.913 476.659 362.621L476.488 335.717L469.648 340.106L468.508 338.453L479.623 330.188H481.561L481.618 364.787C481.618 365.509 481.599 366.212 481.561 366.896C481.561 367.58 481.523 368.188 481.447 368.72C482.245 368.682 483.043 368.644 483.841 368.606C484.639 368.568 485.437 368.53 486.235 368.492V371H471.7ZM499.36 371.912C498.638 371.836 498.125 371.57 497.821 371.114C497.517 370.658 497.365 370.088 497.365 369.404C497.365 368.568 497.574 367.485 497.992 366.155C498.448 364.825 498.98 363.419 499.588 361.937C500.196 360.417 500.747 359.03 501.241 357.776C501.963 355.99 502.818 353.824 503.806 351.278C504.794 348.732 505.877 346.053 507.055 343.241C508.271 340.391 509.506 337.655 510.76 335.033L495.712 335.09C494.192 335.128 492.995 335.489 492.121 336.173C491.285 336.857 490.867 337.978 490.867 339.536H489.499V331.1H513.382V334.976C512.014 337.826 510.817 340.543 509.791 343.127C508.803 345.711 507.91 348.314 507.112 350.936C506.314 353.52 505.554 356.237 504.832 359.087C504.11 361.937 503.331 365.053 502.495 368.435C502.267 369.347 501.906 370.164 501.412 370.886C500.956 371.608 500.272 371.95 499.36 371.912Z" fill="#1F3622"></path><path d="M580.833 371V369.119C582.163 369.043 583.17 368.739 583.854 368.207C584.576 367.675 585.07 366.934 585.336 365.984C585.64 365.034 585.792 363.913 585.792 362.621L585.621 335.717L578.781 340.106L577.641 338.453L588.756 330.188H590.694L590.751 364.787C590.751 365.509 590.732 366.212 590.694 366.896C590.694 367.58 590.656 368.188 590.58 368.72C591.378 368.682 592.176 368.644 592.974 368.606C593.772 368.568 594.57 368.53 595.368 368.492V371H580.833ZM613.11 371.912C611.78 371.912 610.393 371.741 608.949 371.399C607.505 371.095 606.156 370.582 604.902 369.86C603.686 369.138 602.679 368.169 601.881 366.953C601.121 365.737 600.741 364.236 600.741 362.45C600.741 360.74 601.159 359.182 601.995 357.776C602.831 356.332 603.895 355.04 605.187 353.9C606.517 352.722 607.923 351.677 609.405 350.765C606.517 349.017 604.484 347.288 603.306 345.578C602.128 343.83 601.539 342.139 601.539 340.505C601.539 338.719 601.881 337.18 602.565 335.888C603.287 334.558 604.237 333.475 605.415 332.639C606.593 331.803 607.885 331.195 609.291 330.815C610.735 330.397 612.179 330.188 613.623 330.188C615.561 330.188 617.366 330.549 619.038 331.271C620.748 331.955 622.116 332.981 623.142 334.349C624.206 335.717 624.738 337.389 624.738 339.365C624.738 340.847 624.377 342.215 623.655 343.469C622.971 344.723 622.04 345.844 620.862 346.832C619.722 347.782 618.449 348.618 617.043 349.34C618.753 350.328 620.33 351.468 621.774 352.76C623.218 354.014 624.377 355.382 625.251 356.864C626.125 358.346 626.562 359.904 626.562 361.538C626.562 363.932 625.935 365.908 624.681 367.466C623.427 368.986 621.774 370.107 619.722 370.829C617.67 371.551 615.466 371.912 613.11 371.912ZM613.224 369.632C615.694 369.67 617.594 369.062 618.924 367.808C620.292 366.554 620.976 364.825 620.976 362.621C620.976 360.645 620.273 358.726 618.867 356.864C617.499 354.964 615.067 353.273 611.571 351.791C609.481 353.311 607.961 354.945 607.011 356.693C606.099 358.441 605.605 360.018 605.529 361.424C605.377 363.856 606.004 365.832 607.41 367.352C608.854 368.834 610.792 369.594 613.224 369.632ZM615.048 348.2C616.72 347.06 617.993 345.768 618.867 344.324C619.779 342.88 620.254 341.455 620.292 340.049C620.368 337.579 619.798 335.698 618.582 334.406C617.366 333.114 615.751 332.449 613.737 332.411C612.255 332.373 611.001 332.696 609.975 333.38C608.949 334.026 608.17 334.881 607.638 335.945C607.106 336.971 606.84 338.073 606.84 339.251C606.84 341.341 607.619 343.165 609.177 344.723C610.773 346.243 612.73 347.402 615.048 348.2Z" fill="#1F3622"></path><path d="M690.36 371V369.119C691.69 369.043 692.697 368.739 693.381 368.207C694.103 367.675 694.597 366.934 694.863 365.984C695.167 365.034 695.319 363.913 695.319 362.621L695.148 335.717L688.308 340.106L687.168 338.453L698.283 330.188H700.221L700.278 364.787C700.278 365.509 700.259 366.212 700.221 366.896C700.221 367.58 700.183 368.188 700.107 368.72C700.905 368.682 701.703 368.644 702.501 368.606C703.299 368.568 704.097 368.53 704.895 368.492V371H690.36ZM721.554 371.912C719.084 371.912 717.07 371.551 715.512 370.829C713.992 370.069 712.89 369.138 712.206 368.036C711.522 366.934 711.18 365.889 711.18 364.901C711.18 364.065 711.389 363.362 711.807 362.792C712.225 362.222 712.852 361.918 713.688 361.88C714.6 361.842 715.246 362.127 715.626 362.735C716.044 363.305 716.253 363.837 716.253 364.331C716.253 364.711 716.177 365.11 716.025 365.528C715.911 365.908 715.721 366.288 715.455 366.668C715.721 367.504 716.291 368.226 717.165 368.834C718.077 369.442 719.445 369.746 721.269 369.746C723.017 369.746 724.48 369.328 725.658 368.492C726.836 367.656 727.786 366.554 728.508 365.186C729.23 363.78 729.781 362.26 730.161 360.626C730.541 358.954 730.788 357.301 730.902 355.667C731.054 354.033 731.13 352.57 731.13 351.278C730.18 352.57 728.907 353.691 727.311 354.641C725.715 355.591 723.796 356.066 721.554 356.066C719.274 356.066 717.355 355.686 715.797 354.926C714.277 354.128 713.061 353.102 712.149 351.848C711.275 350.594 710.629 349.226 710.211 347.744C709.831 346.262 709.641 344.799 709.641 343.355C709.641 340.885 710.192 338.662 711.294 336.686C712.396 334.672 713.954 333.095 715.968 331.955C717.982 330.777 720.357 330.188 723.093 330.188C725.791 330.188 727.995 330.701 729.705 331.727C731.453 332.753 732.821 334.197 733.809 336.059C734.797 337.883 735.481 340.03 735.861 342.5C736.279 344.97 736.488 347.649 736.488 350.537C736.488 352.209 736.374 354.014 736.146 355.952C735.956 357.852 735.557 359.752 734.949 361.652C734.379 363.514 733.543 365.224 732.441 366.782C731.339 368.302 729.895 369.537 728.109 370.487C726.323 371.437 724.138 371.912 721.554 371.912ZM722.751 353.501C723.967 353.501 725.126 353.216 726.228 352.646C727.368 352.038 728.375 351.259 729.249 350.309C730.123 349.359 730.731 348.333 731.073 347.231C730.959 345.445 730.75 343.678 730.446 341.93C730.142 340.182 729.667 338.586 729.021 337.142C728.413 335.698 727.596 334.539 726.57 333.665C725.544 332.791 724.252 332.354 722.694 332.354C721.06 332.354 719.692 332.829 718.59 333.779C717.488 334.691 716.652 335.888 716.082 337.37C715.55 338.852 715.284 340.429 715.284 342.101C715.284 343.165 715.379 344.362 715.569 345.692C715.759 346.984 716.101 348.238 716.595 349.454C717.127 350.632 717.887 351.601 718.875 352.361C719.863 353.121 721.155 353.501 722.751 353.501Z" fill="#1F3622"></path><path d="M241.007 471C241.007 468.986 241.311 467.2 241.919 465.642C242.565 464.084 243.42 462.659 244.484 461.367C245.548 460.037 246.745 458.764 248.075 457.548C249.443 456.294 250.83 454.983 252.236 453.615C254.706 451.259 256.492 449.074 257.594 447.06C258.696 445.046 259.247 443.108 259.247 441.246C259.247 439.802 259.038 438.415 258.62 437.085C258.24 435.717 257.537 434.596 256.511 433.722C255.485 432.848 254.06 432.411 252.236 432.411C250.678 432.411 249.291 432.81 248.075 433.608C246.859 434.368 246.042 435.318 245.624 436.458C246.004 436.838 246.27 437.256 246.422 437.712C246.574 438.13 246.65 438.548 246.65 438.966C246.65 439.308 246.555 439.688 246.365 440.106C246.213 440.524 245.928 440.885 245.51 441.189C245.092 441.493 244.541 441.645 243.857 441.645C243.021 441.607 242.375 441.284 241.919 440.676C241.463 440.068 241.235 439.346 241.235 438.51C241.235 437.712 241.482 436.838 241.976 435.888C242.47 434.9 243.211 433.988 244.199 433.152C245.225 432.278 246.479 431.575 247.961 431.043C249.443 430.473 251.172 430.188 253.148 430.188C254.668 430.188 256.131 430.378 257.537 430.758C258.981 431.1 260.273 431.67 261.413 432.468C262.553 433.266 263.446 434.33 264.092 435.66C264.776 436.952 265.118 438.567 265.118 440.505C265.118 441.455 264.909 442.481 264.491 443.583C264.111 444.685 263.465 445.882 262.553 447.174C261.679 448.428 260.539 449.777 259.133 451.221C257.727 452.627 255.998 454.166 253.946 455.838C251.362 457.966 249.234 459.98 247.562 461.88C245.928 463.742 244.978 465.338 244.712 466.668L254.801 466.953C256.663 466.991 258.297 466.991 259.703 466.953C261.147 466.915 262.268 466.63 263.066 466.098C263.902 465.528 264.32 464.502 264.32 463.02H266.03L265.688 471H241.007ZM271.622 471C271.622 468.986 271.926 467.2 272.534 465.642C273.18 464.084 274.035 462.659 275.099 461.367C276.163 460.037 277.36 458.764 278.69 457.548C280.058 456.294 281.445 454.983 282.851 453.615C285.321 451.259 287.107 449.074 288.209 447.06C289.311 445.046 289.862 443.108 289.862 441.246C289.862 439.802 289.653 438.415 289.235 437.085C288.855 435.717 288.152 434.596 287.126 433.722C286.1 432.848 284.675 432.411 282.851 432.411C281.293 432.411 279.906 432.81 278.69 433.608C277.474 434.368 276.657 435.318 276.239 436.458C276.619 436.838 276.885 437.256 277.037 437.712C277.189 438.13 277.265 438.548 277.265 438.966C277.265 439.308 277.17 439.688 276.98 440.106C276.828 440.524 276.543 440.885 276.125 441.189C275.707 441.493 275.156 441.645 274.472 441.645C273.636 441.607 272.99 441.284 272.534 440.676C272.078 440.068 271.85 439.346 271.85 438.51C271.85 437.712 272.097 436.838 272.591 435.888C273.085 434.9 273.826 433.988 274.814 433.152C275.84 432.278 277.094 431.575 278.576 431.043C280.058 430.473 281.787 430.188 283.763 430.188C285.283 430.188 286.746 430.378 288.152 430.758C289.596 431.1 290.888 431.67 292.028 432.468C293.168 433.266 294.061 434.33 294.707 435.66C295.391 436.952 295.733 438.567 295.733 440.505C295.733 441.455 295.524 442.481 295.106 443.583C294.726 444.685 294.08 445.882 293.168 447.174C292.294 448.428 291.154 449.777 289.748 451.221C288.342 452.627 286.613 454.166 284.561 455.838C281.977 457.966 279.849 459.98 278.177 461.88C276.543 463.742 275.593 465.338 275.327 466.668L285.416 466.953C287.278 466.991 288.912 466.991 290.318 466.953C291.762 466.915 292.883 466.63 293.681 466.098C294.517 465.528 294.935 464.502 294.935 463.02H296.645L296.303 471H271.622Z" fill="#1F3622"></path><path d="M137.933 471C137.933 468.986 138.237 467.2 138.845 465.642C139.491 464.084 140.346 462.659 141.41 461.367C142.474 460.037 143.671 458.764 145.001 457.548C146.369 456.294 147.756 454.983 149.162 453.615C151.632 451.259 153.418 449.074 154.52 447.06C155.622 445.046 156.173 443.108 156.173 441.246C156.173 439.802 155.964 438.415 155.546 437.085C155.166 435.717 154.463 434.596 153.437 433.722C152.411 432.848 150.986 432.411 149.162 432.411C147.604 432.411 146.217 432.81 145.001 433.608C143.785 434.368 142.968 435.318 142.55 436.458C142.93 436.838 143.196 437.256 143.348 437.712C143.5 438.13 143.576 438.548 143.576 438.966C143.576 439.308 143.481 439.688 143.291 440.106C143.139 440.524 142.854 440.885 142.436 441.189C142.018 441.493 141.467 441.645 140.783 441.645C139.947 441.607 139.301 441.284 138.845 440.676C138.389 440.068 138.161 439.346 138.161 438.51C138.161 437.712 138.408 436.838 138.902 435.888C139.396 434.9 140.137 433.988 141.125 433.152C142.151 432.278 143.405 431.575 144.887 431.043C146.369 430.473 148.098 430.188 150.074 430.188C151.594 430.188 153.057 430.378 154.463 430.758C155.907 431.1 157.199 431.67 158.339 432.468C159.479 433.266 160.372 434.33 161.018 435.66C161.702 436.952 162.044 438.567 162.044 440.505C162.044 441.455 161.835 442.481 161.417 443.583C161.037 444.685 160.391 445.882 159.479 447.174C158.605 448.428 157.465 449.777 156.059 451.221C154.653 452.627 152.924 454.166 150.872 455.838C148.288 457.966 146.16 459.98 144.488 461.88C142.854 463.742 141.904 465.338 141.638 466.668L151.727 466.953C153.589 466.991 155.223 466.991 156.629 466.953C158.073 466.915 159.194 466.63 159.992 466.098C160.828 465.528 161.246 464.502 161.246 463.02H162.956L162.614 471H137.933ZM170.144 471V469.119C171.474 469.043 172.481 468.739 173.165 468.207C173.887 467.675 174.381 466.934 174.647 465.984C174.951 465.034 175.103 463.913 175.103 462.621L174.932 435.717L168.092 440.106L166.952 438.453L178.067 430.188H180.005L180.062 464.787C180.062 465.509 180.043 466.212 180.005 466.896C180.005 467.58 179.967 468.188 179.891 468.72C180.689 468.682 181.487 468.644 182.285 468.606C183.083 468.568 183.881 468.53 184.679 468.492V471H170.144Z" fill="#1F3622"></path><path d="M16.6132 471C16.6132 468.986 16.9172 467.2 17.5252 465.642C18.1712 464.084 19.0262 462.659 20.0902 461.367C21.1542 460.037 22.3512 458.764 23.6812 457.548C25.0492 456.294 26.4362 454.983 27.8422 453.615C30.3122 451.259 32.0982 449.074 33.2002 447.06C34.3022 445.046 34.8532 443.108 34.8532 441.246C34.8532 439.802 34.6442 438.415 34.2262 437.085C33.8462 435.717 33.1432 434.596 32.1172 433.722C31.0912 432.848 29.6662 432.411 27.8422 432.411C26.2842 432.411 24.8972 432.81 23.6812 433.608C22.4652 434.368 21.6482 435.318 21.2302 436.458C21.6102 436.838 21.8762 437.256 22.0282 437.712C22.1802 438.13 22.2562 438.548 22.2562 438.966C22.2562 439.308 22.1612 439.688 21.9712 440.106C21.8192 440.524 21.5342 440.885 21.1162 441.189C20.6982 441.493 20.1472 441.645 19.4632 441.645C18.6272 441.607 17.9812 441.284 17.5252 440.676C17.0692 440.068 16.8412 439.346 16.8412 438.51C16.8412 437.712 17.0882 436.838 17.5822 435.888C18.0762 434.9 18.8172 433.988 19.8052 433.152C20.8312 432.278 22.0852 431.575 23.5672 431.043C25.0492 430.473 26.7782 430.188 28.7542 430.188C30.2742 430.188 31.7372 430.378 33.1432 430.758C34.5872 431.1 35.8792 431.67 37.0192 432.468C38.1592 433.266 39.0522 434.33 39.6982 435.66C40.3822 436.952 40.7242 438.567 40.7242 440.505C40.7242 441.455 40.5152 442.481 40.0972 443.583C39.7172 444.685 39.0712 445.882 38.1592 447.174C37.2852 448.428 36.1452 449.777 34.7392 451.221C33.3332 452.627 31.6042 454.166 29.5522 455.838C26.9682 457.966 24.8402 459.98 23.1682 461.88C21.5342 463.742 20.5842 465.338 20.3182 466.668L30.4072 466.953C32.2692 466.991 33.9032 466.991 35.3092 466.953C36.7532 466.915 37.8742 466.63 38.6722 466.098C39.5082 465.528 39.9262 464.502 39.9262 463.02H41.6362L41.2942 471H16.6132ZM62.3334 471.912C59.4454 471.912 57.0514 471.304 55.1514 470.088C53.2514 468.834 51.7694 467.2 50.7054 465.186C49.6414 463.134 48.8814 460.892 48.4254 458.46C48.0074 456.028 47.7984 453.615 47.7984 451.221C47.7984 448.827 48.0644 446.395 48.5964 443.925C49.1664 441.455 50.0404 439.194 51.2184 437.142C52.3964 435.052 53.9164 433.38 55.7784 432.126C57.6404 430.834 59.9014 430.188 62.5614 430.188C65.3354 430.188 67.6344 430.815 69.4584 432.069C71.3204 433.323 72.7834 434.976 73.8474 437.028C74.9494 439.042 75.7284 441.265 76.1844 443.697C76.6404 446.129 76.8684 448.542 76.8684 450.936C76.8684 453.292 76.6024 455.705 76.0704 458.175C75.5384 460.645 74.7024 462.925 73.5624 465.015C72.4224 467.067 70.9214 468.739 69.0594 470.031C67.2354 471.285 64.9934 471.912 62.3334 471.912ZM62.6754 469.689C64.3094 469.689 65.6584 469.176 66.7224 468.15C67.7864 467.124 68.6224 465.756 69.2304 464.046C69.8764 462.336 70.3324 460.455 70.5984 458.403C70.8644 456.313 70.9974 454.223 70.9974 452.133C70.9974 449.815 70.8644 447.497 70.5984 445.179C70.3324 442.861 69.8764 440.733 69.2304 438.795C68.5844 436.857 67.7104 435.299 66.6084 434.121C65.5064 432.943 64.1194 432.354 62.4474 432.354C60.8134 432.354 59.4264 432.867 58.2864 433.893C57.1844 434.919 56.2914 436.287 55.6074 437.997C54.9234 439.707 54.4294 441.607 54.1254 443.697C53.8214 445.787 53.6694 447.896 53.6694 450.024C53.6694 451.62 53.7454 453.311 53.8974 455.097C54.0494 456.883 54.3154 458.65 54.6954 460.398C55.1134 462.108 55.6644 463.666 56.3484 465.072C57.0324 466.478 57.8874 467.599 58.9134 468.435C59.9394 469.271 61.1934 469.689 62.6754 469.689Z" fill="#1F3622"></path><path d="M350.868 471C350.868 468.986 351.172 467.2 351.78 465.642C352.426 464.084 353.281 462.659 354.345 461.367C355.409 460.037 356.606 458.764 357.936 457.548C359.304 456.294 360.691 454.983 362.097 453.615C364.567 451.259 366.353 449.074 367.455 447.06C368.557 445.046 369.108 443.108 369.108 441.246C369.108 439.802 368.899 438.415 368.481 437.085C368.101 435.717 367.398 434.596 366.372 433.722C365.346 432.848 363.921 432.411 362.097 432.411C360.539 432.411 359.152 432.81 357.936 433.608C356.72 434.368 355.903 435.318 355.485 436.458C355.865 436.838 356.131 437.256 356.283 437.712C356.435 438.13 356.511 438.548 356.511 438.966C356.511 439.308 356.416 439.688 356.226 440.106C356.074 440.524 355.789 440.885 355.371 441.189C354.953 441.493 354.402 441.645 353.718 441.645C352.882 441.607 352.236 441.284 351.78 440.676C351.324 440.068 351.096 439.346 351.096 438.51C351.096 437.712 351.343 436.838 351.837 435.888C352.331 434.9 353.072 433.988 354.06 433.152C355.086 432.278 356.34 431.575 357.822 431.043C359.304 430.473 361.033 430.188 363.009 430.188C364.529 430.188 365.992 430.378 367.398 430.758C368.842 431.1 370.134 431.67 371.274 432.468C372.414 433.266 373.307 434.33 373.953 435.66C374.637 436.952 374.979 438.567 374.979 440.505C374.979 441.455 374.77 442.481 374.352 443.583C373.972 444.685 373.326 445.882 372.414 447.174C371.54 448.428 370.4 449.777 368.994 451.221C367.588 452.627 365.859 454.166 363.807 455.838C361.223 457.966 359.095 459.98 357.423 461.88C355.789 463.742 354.839 465.338 354.573 466.668L364.662 466.953C366.524 466.991 368.158 466.991 369.564 466.953C371.008 466.915 372.129 466.63 372.927 466.098C373.763 465.528 374.181 464.502 374.181 463.02H375.891L375.549 471H350.868ZM392.561 471.912C389.825 471.912 387.564 471.513 385.778 470.715C383.992 469.879 382.662 468.853 381.788 467.637C380.952 466.421 380.534 465.262 380.534 464.16C380.534 463.286 380.762 462.564 381.218 461.994C381.674 461.386 382.32 461.063 383.156 461.025C383.84 460.987 384.372 461.12 384.752 461.424C385.17 461.69 385.455 462.032 385.607 462.45C385.759 462.868 385.835 463.248 385.835 463.59C385.835 463.97 385.778 464.35 385.664 464.73C385.55 465.11 385.398 465.49 385.208 465.87C385.588 467.162 386.443 468.093 387.773 468.663C389.141 469.233 390.604 469.518 392.162 469.518C394.86 469.518 397.007 468.777 398.603 467.295C400.237 465.813 401.054 463.666 401.054 460.854C401.054 459.182 400.788 457.605 400.256 456.123C399.724 454.603 398.736 453.368 397.292 452.418C395.848 451.468 393.739 451.031 390.965 451.107C390.661 451.107 390.338 451.126 389.996 451.164C389.654 451.164 389.274 451.183 388.856 451.221V448.656C389.274 448.656 389.673 448.656 390.053 448.656C390.433 448.656 390.813 448.656 391.193 448.656C393.207 448.656 394.784 448.2 395.924 447.288C397.064 446.376 397.881 445.293 398.375 444.039C398.869 442.785 399.116 441.626 399.116 440.562C399.116 439.004 398.907 437.617 398.489 436.401C398.109 435.147 397.425 434.178 396.437 433.494C395.449 432.772 394.081 432.411 392.333 432.411C390.623 432.411 389.16 432.867 387.944 433.779C386.728 434.653 385.968 435.565 385.664 436.515C386.006 436.895 386.234 437.275 386.348 437.655C386.5 438.035 386.576 438.434 386.576 438.852C386.576 439.156 386.481 439.517 386.291 439.935C386.139 440.315 385.873 440.638 385.493 440.904C385.113 441.17 384.6 441.303 383.954 441.303C383.156 441.303 382.548 441.018 382.13 440.448C381.712 439.878 381.503 439.194 381.503 438.396C381.503 437.332 381.921 436.173 382.757 434.919C383.593 433.627 384.866 432.525 386.576 431.613C388.324 430.663 390.509 430.188 393.131 430.188C395.183 430.188 397.083 430.511 398.831 431.157C400.579 431.803 401.985 432.867 403.049 434.349C404.113 435.793 404.645 437.712 404.645 440.106C404.645 441.284 404.341 442.481 403.733 443.697C403.163 444.875 402.194 445.977 400.826 447.003C399.496 448.029 397.653 448.903 395.297 449.625C398.907 450.005 401.738 451.164 403.79 453.102C405.88 455.04 406.925 457.491 406.925 460.455C406.925 463.039 406.241 465.186 404.873 466.896C403.543 468.568 401.776 469.822 399.572 470.658C397.406 471.494 395.069 471.912 392.561 471.912Z" fill="#1F3622"></path><path d="M463.508 471C463.508 468.986 463.812 467.2 464.42 465.642C465.066 464.084 465.921 462.659 466.985 461.367C468.049 460.037 469.246 458.764 470.576 457.548C471.944 456.294 473.331 454.983 474.737 453.615C477.207 451.259 478.993 449.074 480.095 447.06C481.197 445.046 481.748 443.108 481.748 441.246C481.748 439.802 481.539 438.415 481.121 437.085C480.741 435.717 480.038 434.596 479.012 433.722C477.986 432.848 476.561 432.411 474.737 432.411C473.179 432.411 471.792 432.81 470.576 433.608C469.36 434.368 468.543 435.318 468.125 436.458C468.505 436.838 468.771 437.256 468.923 437.712C469.075 438.13 469.151 438.548 469.151 438.966C469.151 439.308 469.056 439.688 468.866 440.106C468.714 440.524 468.429 440.885 468.011 441.189C467.593 441.493 467.042 441.645 466.358 441.645C465.522 441.607 464.876 441.284 464.42 440.676C463.964 440.068 463.736 439.346 463.736 438.51C463.736 437.712 463.983 436.838 464.477 435.888C464.971 434.9 465.712 433.988 466.7 433.152C467.726 432.278 468.98 431.575 470.462 431.043C471.944 430.473 473.673 430.188 475.649 430.188C477.169 430.188 478.632 430.378 480.038 430.758C481.482 431.1 482.774 431.67 483.914 432.468C485.054 433.266 485.947 434.33 486.593 435.66C487.277 436.952 487.619 438.567 487.619 440.505C487.619 441.455 487.41 442.481 486.992 443.583C486.612 444.685 485.966 445.882 485.054 447.174C484.18 448.428 483.04 449.777 481.634 451.221C480.228 452.627 478.499 454.166 476.447 455.838C473.863 457.966 471.735 459.98 470.063 461.88C468.429 463.742 467.479 465.338 467.213 466.668L477.302 466.953C479.164 466.991 480.798 466.991 482.204 466.953C483.648 466.915 484.769 466.63 485.567 466.098C486.403 465.528 486.821 464.502 486.821 463.02H488.531L488.189 471H463.508ZM513.42 464.787C513.42 465.547 513.401 466.269 513.363 466.953C513.363 467.637 513.306 468.264 513.192 468.834C513.952 468.796 514.693 468.777 515.415 468.777C516.137 468.739 516.859 468.701 517.581 468.663V471H503.274V469.119H503.673C504.965 469.005 505.934 468.644 506.58 468.036C507.226 467.428 507.663 466.611 507.891 465.585C508.119 464.559 508.233 463.343 508.233 461.937V459.999H490.905V457.206L511.539 430.188H513.42V456.579L519.177 456.636V459.999H513.42V464.787ZM508.119 438.282L494.667 456.294L508.233 456.465V438.282H508.119Z" fill="#1F3622"></path><path d="M574.784 471C574.784 468.986 575.088 467.2 575.696 465.642C576.342 464.084 577.197 462.659 578.261 461.367C579.325 460.037 580.522 458.764 581.852 457.548C583.22 456.294 584.607 454.983 586.013 453.615C588.483 451.259 590.269 449.074 591.371 447.06C592.473 445.046 593.024 443.108 593.024 441.246C593.024 439.802 592.815 438.415 592.397 437.085C592.017 435.717 591.314 434.596 590.288 433.722C589.262 432.848 587.837 432.411 586.013 432.411C584.455 432.411 583.068 432.81 581.852 433.608C580.636 434.368 579.819 435.318 579.401 436.458C579.781 436.838 580.047 437.256 580.199 437.712C580.351 438.13 580.427 438.548 580.427 438.966C580.427 439.308 580.332 439.688 580.142 440.106C579.99 440.524 579.705 440.885 579.287 441.189C578.869 441.493 578.318 441.645 577.634 441.645C576.798 441.607 576.152 441.284 575.696 440.676C575.24 440.068 575.012 439.346 575.012 438.51C575.012 437.712 575.259 436.838 575.753 435.888C576.247 434.9 576.988 433.988 577.976 433.152C579.002 432.278 580.256 431.575 581.738 431.043C583.22 430.473 584.949 430.188 586.925 430.188C588.445 430.188 589.908 430.378 591.314 430.758C592.758 431.1 594.05 431.67 595.19 432.468C596.33 433.266 597.223 434.33 597.869 435.66C598.553 436.952 598.895 438.567 598.895 440.505C598.895 441.455 598.686 442.481 598.268 443.583C597.888 444.685 597.242 445.882 596.33 447.174C595.456 448.428 594.316 449.777 592.91 451.221C591.504 452.627 589.775 454.166 587.723 455.838C585.139 457.966 583.011 459.98 581.339 461.88C579.705 463.742 578.755 465.338 578.489 466.668L588.578 466.953C590.44 466.991 592.074 466.991 593.48 466.953C594.924 466.915 596.045 466.63 596.843 466.098C597.679 465.528 598.097 464.502 598.097 463.02H599.807L599.465 471H574.784ZM617.255 471.912C614.823 471.912 612.752 471.513 611.042 470.715C609.332 469.879 608.021 468.853 607.109 467.637C606.197 466.421 605.741 465.262 605.741 464.16C605.741 463.286 605.969 462.564 606.425 461.994C606.881 461.386 607.527 461.063 608.363 461.025C609.047 460.987 609.579 461.12 609.959 461.424C610.377 461.69 610.662 462.032 610.814 462.45C610.966 462.868 611.042 463.248 611.042 463.59C611.042 463.97 610.985 464.35 610.871 464.73C610.757 465.11 610.605 465.471 610.415 465.813C610.567 466.725 611.042 467.485 611.84 468.093C612.638 468.663 613.55 469.081 614.576 469.347C615.64 469.613 616.609 469.727 617.483 469.689C619.345 469.613 620.846 469.119 621.986 468.207C623.126 467.257 623.962 466.06 624.494 464.616C625.064 463.172 625.349 461.652 625.349 460.056C625.349 458.992 625.254 457.814 625.064 456.522C624.912 455.23 624.532 454.014 623.924 452.874C623.354 451.696 622.48 450.727 621.302 449.967C620.124 449.207 618.528 448.827 616.514 448.827C615.868 448.827 615.07 448.903 614.12 449.055C613.208 449.207 612.277 449.435 611.327 449.739C610.415 450.043 609.636 450.404 608.99 450.822L607.394 449.34L607.28 431.1H622.043C624.209 431.1 625.691 430.815 626.489 430.245C627.325 429.637 627.743 428.687 627.743 427.395H629.282L628.94 434.919L609.902 435.318V447.858C610.814 447.478 611.992 447.117 613.436 446.775C614.918 446.433 616.495 446.262 618.167 446.262C620.523 446.262 622.518 446.642 624.152 447.402C625.824 448.124 627.173 449.112 628.199 450.366C629.263 451.582 630.042 452.95 630.536 454.47C631.03 455.952 631.277 457.472 631.277 459.03C631.277 461.842 630.612 464.217 629.282 466.155C627.99 468.055 626.28 469.499 624.152 470.487C622.024 471.437 619.725 471.912 617.255 471.912Z" fill="#1F3622"></path><path d="M683.838 471C683.838 468.986 684.142 467.2 684.75 465.642C685.396 464.084 686.251 462.659 687.315 461.367C688.379 460.037 689.576 458.764 690.906 457.548C692.274 456.294 693.661 454.983 695.067 453.615C697.537 451.259 699.323 449.074 700.425 447.06C701.527 445.046 702.078 443.108 702.078 441.246C702.078 439.802 701.869 438.415 701.451 437.085C701.071 435.717 700.368 434.596 699.342 433.722C698.316 432.848 696.891 432.411 695.067 432.411C693.509 432.411 692.122 432.81 690.906 433.608C689.69 434.368 688.873 435.318 688.455 436.458C688.835 436.838 689.101 437.256 689.253 437.712C689.405 438.13 689.481 438.548 689.481 438.966C689.481 439.308 689.386 439.688 689.196 440.106C689.044 440.524 688.759 440.885 688.341 441.189C687.923 441.493 687.372 441.645 686.688 441.645C685.852 441.607 685.206 441.284 684.75 440.676C684.294 440.068 684.066 439.346 684.066 438.51C684.066 437.712 684.313 436.838 684.807 435.888C685.301 434.9 686.042 433.988 687.03 433.152C688.056 432.278 689.31 431.575 690.792 431.043C692.274 430.473 694.003 430.188 695.979 430.188C697.499 430.188 698.962 430.378 700.368 430.758C701.812 431.1 703.104 431.67 704.244 432.468C705.384 433.266 706.277 434.33 706.923 435.66C707.607 436.952 707.949 438.567 707.949 440.505C707.949 441.455 707.74 442.481 707.322 443.583C706.942 444.685 706.296 445.882 705.384 447.174C704.51 448.428 703.37 449.777 701.964 451.221C700.558 452.627 698.829 454.166 696.777 455.838C694.193 457.966 692.065 459.98 690.393 461.88C688.759 463.742 687.809 465.338 687.543 466.668L697.632 466.953C699.494 466.991 701.128 466.991 702.534 466.953C703.978 466.915 705.099 466.63 705.897 466.098C706.733 465.528 707.151 464.502 707.151 463.02H708.861L708.519 471H683.838ZM728.646 471.912C725.264 471.912 722.566 471.114 720.552 469.518C718.576 467.922 717.151 465.661 716.277 462.735C715.441 459.771 715.023 456.275 715.023 452.247C715.023 450.879 715.137 449.264 715.365 447.402C715.631 445.502 716.087 443.564 716.733 441.588C717.379 439.574 718.272 437.712 719.412 436.002C720.59 434.254 722.091 432.848 723.915 431.784C725.739 430.72 727.943 430.188 730.527 430.188C732.807 430.188 734.688 430.606 736.17 431.442C737.652 432.24 738.754 433.209 739.476 434.349C740.236 435.451 740.616 436.477 740.616 437.427C740.616 438.225 740.407 438.909 739.989 439.479C739.609 440.011 739.001 440.315 738.165 440.391C737.215 440.429 736.55 440.163 736.17 439.593C735.79 439.023 735.6 438.491 735.6 437.997C735.6 437.617 735.657 437.218 735.771 436.8C735.885 436.382 736.056 435.983 736.284 435.603C736.094 434.919 735.486 434.197 734.46 433.437C733.472 432.677 732.199 432.297 730.641 432.297C728.893 432.297 727.411 432.753 726.195 433.665C725.017 434.577 724.048 435.774 723.288 437.256C722.566 438.738 721.996 440.334 721.578 442.044C721.16 443.716 720.856 445.331 720.666 446.889C720.514 448.447 720.419 449.777 720.381 450.879C721.027 450.043 721.806 449.264 722.718 448.542C723.63 447.82 724.694 447.231 725.91 446.775C727.126 446.319 728.475 446.091 729.957 446.091C732.237 446.091 734.137 446.49 735.657 447.288C737.215 448.048 738.45 449.055 739.362 450.309C740.312 451.563 740.977 452.95 741.357 454.47C741.775 455.952 741.984 457.415 741.984 458.859C741.984 461.215 741.395 463.4 740.217 465.414C739.077 467.39 737.5 468.967 735.486 470.145C733.472 471.323 731.192 471.912 728.646 471.912ZM728.76 469.689C730.546 469.689 731.99 469.252 733.092 468.378C734.194 467.466 734.992 466.288 735.486 464.844C735.98 463.362 736.227 461.785 736.227 460.113C736.227 459.049 736.132 457.871 735.942 456.579C735.752 455.249 735.391 453.995 734.859 452.817C734.365 451.601 733.624 450.613 732.636 449.853C731.648 449.055 730.356 448.656 728.76 448.656C727.582 448.656 726.423 448.96 725.283 449.568C724.143 450.138 723.136 450.898 722.262 451.848C721.426 452.798 720.818 453.824 720.438 454.926C720.552 456.75 720.761 458.536 721.065 460.284C721.407 462.032 721.882 463.609 722.49 465.015C723.136 466.421 723.972 467.561 724.998 468.435C726.024 469.271 727.278 469.689 728.76 469.689Z" fill="#1F3622"></path><path d="M239.838 571C239.838 568.986 240.142 567.2 240.75 565.642C241.396 564.084 242.251 562.659 243.315 561.367C244.379 560.037 245.576 558.764 246.906 557.548C248.274 556.294 249.661 554.983 251.067 553.615C253.537 551.259 255.323 549.074 256.425 547.06C257.527 545.046 258.078 543.108 258.078 541.246C258.078 539.802 257.869 538.415 257.451 537.085C257.071 535.717 256.368 534.596 255.342 533.722C254.316 532.848 252.891 532.411 251.067 532.411C249.509 532.411 248.122 532.81 246.906 533.608C245.69 534.368 244.873 535.318 244.455 536.458C244.835 536.838 245.101 537.256 245.253 537.712C245.405 538.13 245.481 538.548 245.481 538.966C245.481 539.308 245.386 539.688 245.196 540.106C245.044 540.524 244.759 540.885 244.341 541.189C243.923 541.493 243.372 541.645 242.688 541.645C241.852 541.607 241.206 541.284 240.75 540.676C240.294 540.068 240.066 539.346 240.066 538.51C240.066 537.712 240.313 536.838 240.807 535.888C241.301 534.9 242.042 533.988 243.03 533.152C244.056 532.278 245.31 531.575 246.792 531.043C248.274 530.473 250.003 530.188 251.979 530.188C253.499 530.188 254.962 530.378 256.368 530.758C257.812 531.1 259.104 531.67 260.244 532.468C261.384 533.266 262.277 534.33 262.923 535.66C263.607 536.952 263.949 538.567 263.949 540.505C263.949 541.455 263.74 542.481 263.322 543.583C262.942 544.685 262.296 545.882 261.384 547.174C260.51 548.428 259.37 549.777 257.964 551.221C256.558 552.627 254.829 554.166 252.777 555.838C250.193 557.966 248.065 559.98 246.393 561.88C244.759 563.742 243.809 565.338 243.543 566.668L253.632 566.953C255.494 566.991 257.128 566.991 258.534 566.953C259.978 566.915 261.099 566.63 261.897 566.098C262.733 565.528 263.151 564.502 263.151 563.02H264.861L264.519 571H239.838ZM282.48 571.912C280.01 571.912 277.996 571.551 276.438 570.829C274.918 570.069 273.816 569.138 273.132 568.036C272.448 566.934 272.106 565.889 272.106 564.901C272.106 564.065 272.315 563.362 272.733 562.792C273.151 562.222 273.778 561.918 274.614 561.88C275.526 561.842 276.172 562.127 276.552 562.735C276.97 563.305 277.179 563.837 277.179 564.331C277.179 564.711 277.103 565.11 276.951 565.528C276.837 565.908 276.647 566.288 276.381 566.668C276.647 567.504 277.217 568.226 278.091 568.834C279.003 569.442 280.371 569.746 282.195 569.746C283.943 569.746 285.406 569.328 286.584 568.492C287.762 567.656 288.712 566.554 289.434 565.186C290.156 563.78 290.707 562.26 291.087 560.626C291.467 558.954 291.714 557.301 291.828 555.667C291.98 554.033 292.056 552.57 292.056 551.278C291.106 552.57 289.833 553.691 288.237 554.641C286.641 555.591 284.722 556.066 282.48 556.066C280.2 556.066 278.281 555.686 276.723 554.926C275.203 554.128 273.987 553.102 273.075 551.848C272.201 550.594 271.555 549.226 271.137 547.744C270.757 546.262 270.567 544.799 270.567 543.355C270.567 540.885 271.118 538.662 272.22 536.686C273.322 534.672 274.88 533.095 276.894 531.955C278.908 530.777 281.283 530.188 284.019 530.188C286.717 530.188 288.921 530.701 290.631 531.727C292.379 532.753 293.747 534.197 294.735 536.059C295.723 537.883 296.407 540.03 296.787 542.5C297.205 544.97 297.414 547.649 297.414 550.537C297.414 552.209 297.3 554.014 297.072 555.952C296.882 557.852 296.483 559.752 295.875 561.652C295.305 563.514 294.469 565.224 293.367 566.782C292.265 568.302 290.821 569.537 289.035 570.487C287.249 571.437 285.064 571.912 282.48 571.912ZM283.677 553.501C284.893 553.501 286.052 553.216 287.154 552.646C288.294 552.038 289.301 551.259 290.175 550.309C291.049 549.359 291.657 548.333 291.999 547.231C291.885 545.445 291.676 543.678 291.372 541.93C291.068 540.182 290.593 538.586 289.947 537.142C289.339 535.698 288.522 534.539 287.496 533.665C286.47 532.791 285.178 532.354 283.62 532.354C281.986 532.354 280.618 532.829 279.516 533.779C278.414 534.691 277.578 535.888 277.008 537.37C276.476 538.852 276.21 540.429 276.21 542.101C276.21 543.165 276.305 544.362 276.495 545.692C276.685 546.984 277.027 548.238 277.521 549.454C278.053 550.632 278.813 551.601 279.801 552.361C280.789 553.121 282.081 553.501 283.677 553.501Z" fill="#1F3622"></path><path d="M132.311 571C132.311 568.986 132.615 567.2 133.223 565.642C133.869 564.084 134.724 562.659 135.788 561.367C136.852 560.037 138.049 558.764 139.379 557.548C140.747 556.294 142.134 554.983 143.54 553.615C146.01 551.259 147.796 549.074 148.898 547.06C150 545.046 150.551 543.108 150.551 541.246C150.551 539.802 150.342 538.415 149.924 537.085C149.544 535.717 148.841 534.596 147.815 533.722C146.789 532.848 145.364 532.411 143.54 532.411C141.982 532.411 140.595 532.81 139.379 533.608C138.163 534.368 137.346 535.318 136.928 536.458C137.308 536.838 137.574 537.256 137.726 537.712C137.878 538.13 137.954 538.548 137.954 538.966C137.954 539.308 137.859 539.688 137.669 540.106C137.517 540.524 137.232 540.885 136.814 541.189C136.396 541.493 135.845 541.645 135.161 541.645C134.325 541.607 133.679 541.284 133.223 540.676C132.767 540.068 132.539 539.346 132.539 538.51C132.539 537.712 132.786 536.838 133.28 535.888C133.774 534.9 134.515 533.988 135.503 533.152C136.529 532.278 137.783 531.575 139.265 531.043C140.747 530.473 142.476 530.188 144.452 530.188C145.972 530.188 147.435 530.378 148.841 530.758C150.285 531.1 151.577 531.67 152.717 532.468C153.857 533.266 154.75 534.33 155.396 535.66C156.08 536.952 156.422 538.567 156.422 540.505C156.422 541.455 156.213 542.481 155.795 543.583C155.415 544.685 154.769 545.882 153.857 547.174C152.983 548.428 151.843 549.777 150.437 551.221C149.031 552.627 147.302 554.166 145.25 555.838C142.666 557.966 140.538 559.98 138.866 561.88C137.232 563.742 136.282 565.338 136.016 566.668L146.105 566.953C147.967 566.991 149.601 566.991 151.007 566.953C152.451 566.915 153.572 566.63 154.37 566.098C155.206 565.528 155.624 564.502 155.624 563.02H157.334L156.992 571H132.311ZM176.036 571.912C174.706 571.912 173.319 571.741 171.875 571.399C170.431 571.095 169.082 570.582 167.828 569.86C166.612 569.138 165.605 568.169 164.807 566.953C164.047 565.737 163.667 564.236 163.667 562.45C163.667 560.74 164.085 559.182 164.921 557.776C165.757 556.332 166.821 555.04 168.113 553.9C169.443 552.722 170.849 551.677 172.331 550.765C169.443 549.017 167.41 547.288 166.232 545.578C165.054 543.83 164.465 542.139 164.465 540.505C164.465 538.719 164.807 537.18 165.491 535.888C166.213 534.558 167.163 533.475 168.341 532.639C169.519 531.803 170.811 531.195 172.217 530.815C173.661 530.397 175.105 530.188 176.549 530.188C178.487 530.188 180.292 530.549 181.964 531.271C183.674 531.955 185.042 532.981 186.068 534.349C187.132 535.717 187.664 537.389 187.664 539.365C187.664 540.847 187.303 542.215 186.581 543.469C185.897 544.723 184.966 545.844 183.788 546.832C182.648 547.782 181.375 548.618 179.969 549.34C181.679 550.328 183.256 551.468 184.7 552.76C186.144 554.014 187.303 555.382 188.177 556.864C189.051 558.346 189.488 559.904 189.488 561.538C189.488 563.932 188.861 565.908 187.607 567.466C186.353 568.986 184.7 570.107 182.648 570.829C180.596 571.551 178.392 571.912 176.036 571.912ZM176.15 569.632C178.62 569.67 180.52 569.062 181.85 567.808C183.218 566.554 183.902 564.825 183.902 562.621C183.902 560.645 183.199 558.726 181.793 556.864C180.425 554.964 177.993 553.273 174.497 551.791C172.407 553.311 170.887 554.945 169.937 556.693C169.025 558.441 168.531 560.018 168.455 561.424C168.303 563.856 168.93 565.832 170.336 567.352C171.78 568.834 173.718 569.594 176.15 569.632ZM177.974 548.2C179.646 547.06 180.919 545.768 181.793 544.324C182.705 542.88 183.18 541.455 183.218 540.049C183.294 537.579 182.724 535.698 181.508 534.406C180.292 533.114 178.677 532.449 176.663 532.411C175.181 532.373 173.927 532.696 172.901 533.38C171.875 534.026 171.096 534.881 170.564 535.945C170.032 536.971 169.766 538.073 169.766 539.251C169.766 541.341 170.545 543.165 172.103 544.723C173.699 546.243 175.656 547.402 177.974 548.2Z" fill="#1F3622"></path><path d="M21.1777 571C21.1777 568.986 21.4817 567.2 22.0897 565.642C22.7357 564.084 23.5907 562.659 24.6547 561.367C25.7187 560.037 26.9157 558.764 28.2457 557.548C29.6137 556.294 31.0007 554.983 32.4067 553.615C34.8767 551.259 36.6627 549.074 37.7647 547.06C38.8667 545.046 39.4177 543.108 39.4177 541.246C39.4177 539.802 39.2087 538.415 38.7907 537.085C38.4107 535.717 37.7077 534.596 36.6817 533.722C35.6557 532.848 34.2307 532.411 32.4067 532.411C30.8487 532.411 29.4617 532.81 28.2457 533.608C27.0297 534.368 26.2127 535.318 25.7947 536.458C26.1747 536.838 26.4407 537.256 26.5927 537.712C26.7447 538.13 26.8207 538.548 26.8207 538.966C26.8207 539.308 26.7257 539.688 26.5357 540.106C26.3837 540.524 26.0987 540.885 25.6807 541.189C25.2627 541.493 24.7117 541.645 24.0277 541.645C23.1917 541.607 22.5457 541.284 22.0897 540.676C21.6337 540.068 21.4057 539.346 21.4057 538.51C21.4057 537.712 21.6527 536.838 22.1467 535.888C22.6407 534.9 23.3817 533.988 24.3697 533.152C25.3957 532.278 26.6497 531.575 28.1317 531.043C29.6137 530.473 31.3427 530.188 33.3187 530.188C34.8387 530.188 36.3017 530.378 37.7077 530.758C39.1517 531.1 40.4437 531.67 41.5837 532.468C42.7237 533.266 43.6167 534.33 44.2627 535.66C44.9467 536.952 45.2887 538.567 45.2887 540.505C45.2887 541.455 45.0797 542.481 44.6617 543.583C44.2817 544.685 43.6357 545.882 42.7237 547.174C41.8497 548.428 40.7097 549.777 39.3037 551.221C37.8977 552.627 36.1687 554.166 34.1167 555.838C31.5327 557.966 29.4047 559.98 27.7327 561.88C26.0987 563.742 25.1487 565.338 24.8827 566.668L34.9717 566.953C36.8337 566.991 38.4677 566.991 39.8737 566.953C41.3177 566.915 42.4387 566.63 43.2367 566.098C44.0727 565.528 44.4907 564.502 44.4907 563.02H46.2007L45.8587 571H21.1777ZM60.2859 571.912C59.5639 571.836 59.0509 571.57 58.7469 571.114C58.4429 570.658 58.2909 570.088 58.2909 569.404C58.2909 568.568 58.4999 567.485 58.9179 566.155C59.3739 564.825 59.9059 563.419 60.5139 561.937C61.1219 560.417 61.6729 559.03 62.1669 557.776C62.8889 555.99 63.7439 553.824 64.7319 551.278C65.7199 548.732 66.8029 546.053 67.9809 543.241C69.1969 540.391 70.4319 537.655 71.6859 535.033L56.6379 535.09C55.1179 535.128 53.9209 535.489 53.0469 536.173C52.2109 536.857 51.7929 537.978 51.7929 539.536H50.4249V531.1H74.3079V534.976C72.9399 537.826 71.7429 540.543 70.7169 543.127C69.7289 545.711 68.8359 548.314 68.0379 550.936C67.2399 553.52 66.4799 556.237 65.7579 559.087C65.0359 561.937 64.2569 565.053 63.4209 568.435C63.1929 569.347 62.8319 570.164 62.3379 570.886C61.8819 571.608 61.1979 571.95 60.2859 571.912Z" fill="#1F3622"></path><path d="M359.97 571.912C357.234 571.912 354.973 571.513 353.187 570.715C351.401 569.879 350.071 568.853 349.197 567.637C348.361 566.421 347.943 565.262 347.943 564.16C347.943 563.286 348.171 562.564 348.627 561.994C349.083 561.386 349.729 561.063 350.565 561.025C351.249 560.987 351.781 561.12 352.161 561.424C352.579 561.69 352.864 562.032 353.016 562.45C353.168 562.868 353.244 563.248 353.244 563.59C353.244 563.97 353.187 564.35 353.073 564.73C352.959 565.11 352.807 565.49 352.617 565.87C352.997 567.162 353.852 568.093 355.182 568.663C356.55 569.233 358.013 569.518 359.571 569.518C362.269 569.518 364.416 568.777 366.012 567.295C367.646 565.813 368.463 563.666 368.463 560.854C368.463 559.182 368.197 557.605 367.665 556.123C367.133 554.603 366.145 553.368 364.701 552.418C363.257 551.468 361.148 551.031 358.374 551.107C358.07 551.107 357.747 551.126 357.405 551.164C357.063 551.164 356.683 551.183 356.265 551.221V548.656C356.683 548.656 357.082 548.656 357.462 548.656C357.842 548.656 358.222 548.656 358.602 548.656C360.616 548.656 362.193 548.2 363.333 547.288C364.473 546.376 365.29 545.293 365.784 544.039C366.278 542.785 366.525 541.626 366.525 540.562C366.525 539.004 366.316 537.617 365.898 536.401C365.518 535.147 364.834 534.178 363.846 533.494C362.858 532.772 361.49 532.411 359.742 532.411C358.032 532.411 356.569 532.867 355.353 533.779C354.137 534.653 353.377 535.565 353.073 536.515C353.415 536.895 353.643 537.275 353.757 537.655C353.909 538.035 353.985 538.434 353.985 538.852C353.985 539.156 353.89 539.517 353.7 539.935C353.548 540.315 353.282 540.638 352.902 540.904C352.522 541.17 352.009 541.303 351.363 541.303C350.565 541.303 349.957 541.018 349.539 540.448C349.121 539.878 348.912 539.194 348.912 538.396C348.912 537.332 349.33 536.173 350.166 534.919C351.002 533.627 352.275 532.525 353.985 531.613C355.733 530.663 357.918 530.188 360.54 530.188C362.592 530.188 364.492 530.511 366.24 531.157C367.988 531.803 369.394 532.867 370.458 534.349C371.522 535.793 372.054 537.712 372.054 540.106C372.054 541.284 371.75 542.481 371.142 543.697C370.572 544.875 369.603 545.977 368.235 547.003C366.905 548.029 365.062 548.903 362.706 549.625C366.316 550.005 369.147 551.164 371.199 553.102C373.289 555.04 374.334 557.491 374.334 560.455C374.334 563.039 373.65 565.186 372.282 566.896C370.952 568.568 369.185 569.822 366.981 570.658C364.815 571.494 362.478 571.912 359.97 571.912ZM394.89 571.912C392.002 571.912 389.608 571.304 387.708 570.088C385.808 568.834 384.326 567.2 383.262 565.186C382.198 563.134 381.438 560.892 380.982 558.46C380.564 556.028 380.355 553.615 380.355 551.221C380.355 548.827 380.621 546.395 381.153 543.925C381.723 541.455 382.597 539.194 383.775 537.142C384.953 535.052 386.473 533.38 388.335 532.126C390.197 530.834 392.458 530.188 395.118 530.188C397.892 530.188 400.191 530.815 402.015 532.069C403.877 533.323 405.34 534.976 406.404 537.028C407.506 539.042 408.285 541.265 408.741 543.697C409.197 546.129 409.425 548.542 409.425 550.936C409.425 553.292 409.159 555.705 408.627 558.175C408.095 560.645 407.259 562.925 406.119 565.015C404.979 567.067 403.478 568.739 401.616 570.031C399.792 571.285 397.55 571.912 394.89 571.912ZM395.232 569.689C396.866 569.689 398.215 569.176 399.279 568.15C400.343 567.124 401.179 565.756 401.787 564.046C402.433 562.336 402.889 560.455 403.155 558.403C403.421 556.313 403.554 554.223 403.554 552.133C403.554 549.815 403.421 547.497 403.155 545.179C402.889 542.861 402.433 540.733 401.787 538.795C401.141 536.857 400.267 535.299 399.165 534.121C398.063 532.943 396.676 532.354 395.004 532.354C393.37 532.354 391.983 532.867 390.843 533.893C389.741 534.919 388.848 536.287 388.164 537.997C387.48 539.707 386.986 541.607 386.682 543.697C386.378 545.787 386.226 547.896 386.226 550.024C386.226 551.62 386.302 553.311 386.454 555.097C386.606 556.883 386.872 558.65 387.252 560.398C387.67 562.108 388.221 563.666 388.905 565.072C389.589 566.478 390.444 567.599 391.47 568.435C392.496 569.271 393.75 569.689 395.232 569.689Z" fill="#1F3622"></path><path d="M479.289 571.912C476.553 571.912 474.292 571.513 472.506 570.715C470.72 569.879 469.39 568.853 468.516 567.637C467.68 566.421 467.262 565.262 467.262 564.16C467.262 563.286 467.49 562.564 467.946 561.994C468.402 561.386 469.048 561.063 469.884 561.025C470.568 560.987 471.1 561.12 471.48 561.424C471.898 561.69 472.183 562.032 472.335 562.45C472.487 562.868 472.563 563.248 472.563 563.59C472.563 563.97 472.506 564.35 472.392 564.73C472.278 565.11 472.126 565.49 471.936 565.87C472.316 567.162 473.171 568.093 474.501 568.663C475.869 569.233 477.332 569.518 478.89 569.518C481.588 569.518 483.735 568.777 485.331 567.295C486.965 565.813 487.782 563.666 487.782 560.854C487.782 559.182 487.516 557.605 486.984 556.123C486.452 554.603 485.464 553.368 484.02 552.418C482.576 551.468 480.467 551.031 477.693 551.107C477.389 551.107 477.066 551.126 476.724 551.164C476.382 551.164 476.002 551.183 475.584 551.221V548.656C476.002 548.656 476.401 548.656 476.781 548.656C477.161 548.656 477.541 548.656 477.921 548.656C479.935 548.656 481.512 548.2 482.652 547.288C483.792 546.376 484.609 545.293 485.103 544.039C485.597 542.785 485.844 541.626 485.844 540.562C485.844 539.004 485.635 537.617 485.217 536.401C484.837 535.147 484.153 534.178 483.165 533.494C482.177 532.772 480.809 532.411 479.061 532.411C477.351 532.411 475.888 532.867 474.672 533.779C473.456 534.653 472.696 535.565 472.392 536.515C472.734 536.895 472.962 537.275 473.076 537.655C473.228 538.035 473.304 538.434 473.304 538.852C473.304 539.156 473.209 539.517 473.019 539.935C472.867 540.315 472.601 540.638 472.221 540.904C471.841 541.17 471.328 541.303 470.682 541.303C469.884 541.303 469.276 541.018 468.858 540.448C468.44 539.878 468.231 539.194 468.231 538.396C468.231 537.332 468.649 536.173 469.485 534.919C470.321 533.627 471.594 532.525 473.304 531.613C475.052 530.663 477.237 530.188 479.859 530.188C481.911 530.188 483.811 530.511 485.559 531.157C487.307 531.803 488.713 532.867 489.777 534.349C490.841 535.793 491.373 537.712 491.373 540.106C491.373 541.284 491.069 542.481 490.461 543.697C489.891 544.875 488.922 545.977 487.554 547.003C486.224 548.029 484.381 548.903 482.025 549.625C485.635 550.005 488.466 551.164 490.518 553.102C492.608 555.04 493.653 557.491 493.653 560.455C493.653 563.039 492.969 565.186 491.601 566.896C490.271 568.568 488.504 569.822 486.3 570.658C484.134 571.494 481.797 571.912 479.289 571.912ZM500.701 571V569.119C502.031 569.043 503.038 568.739 503.722 568.207C504.444 567.675 504.938 566.934 505.204 565.984C505.508 565.034 505.66 563.913 505.66 562.621L505.489 535.717L498.649 540.106L497.509 538.453L508.624 530.188H510.562L510.619 564.787C510.619 565.509 510.6 566.212 510.562 566.896C510.562 567.58 510.524 568.188 510.448 568.72C511.246 568.682 512.044 568.644 512.842 568.606C513.64 568.568 514.438 568.53 515.236 568.492V571H500.701Z" fill="#1F3622"></path><path d="M580.333 210C566.344 210 555 221.566 555 235.829C555 264.375 603 297 603 297C603 297 651 264.375 651 235.829C651 218.158 639.656 210 625.667 210C615.747 210 607.16 215.814 603 224.278C598.84 215.814 590.253 210 580.333 210Z" stroke="#1F3622" stroke-width="4" stroke-linecap="round" stroke-linejoin="round"></path></svg> 